<svg width="41" height="40" viewBox="0 0 41 40" fill="none" xmlns="http://www.w3.org/2000/svg">
<path d="M0.0810547 19.2324C0.0987046 19.0167 0.118347 18.8012 0.13315 18.5851C0.292 16.2863 0.835731 14.0817 1.76377 11.9733C2.83672 9.53618 4.34038 7.39935 6.26251 5.55632C7.71293 4.16537 9.33672 3.01867 11.1316 2.1168C12.8989 1.22859 14.7592 0.619083 16.7098 0.286005C18.0552 0.0565513 19.4103 -0.036255 20.7727 0.0127103C23.5341 0.11178 26.1673 0.746051 28.6631 1.93688C30.6646 2.89198 32.4592 4.14402 34.0443 5.6961C36.3112 7.91548 37.9663 10.522 39.0028 13.5212C39.511 14.991 39.8389 16.5009 39.9864 18.0479C40.2491 20.809 39.9687 23.5141 39.1118 26.1545C38.1861 29.007 36.6878 31.523 34.6347 33.706C33.0556 35.385 31.238 36.7512 29.186 37.8045C27.3354 38.7548 25.3845 39.4081 23.33 39.7293C22.536 39.8534 21.7298 39.8975 20.9293 39.9789C20.8929 39.9826 20.8573 39.9929 20.8211 40H19.3701C19.3288 39.9929 19.2881 39.9806 19.2466 39.9792C18.3792 39.9482 17.5177 39.8551 16.6631 39.7062C14.62 39.3501 12.6731 38.7024 10.8401 37.7294C6.85862 35.6162 3.89258 32.524 1.95992 28.4519C0.905192 26.2302 0.305664 23.8844 0.135143 21.4299C0.119771 21.2093 0.0992739 20.9892 0.0810547 20.7689C0.0810547 20.2567 0.0810547 19.7446 0.0810547 19.2327V19.2324ZM20.0781 1.00227C9.60688 1.00597 1.00568 9.54842 1.08738 20.1585C1.16766 30.6138 9.75947 39.1434 20.3662 38.9954C30.7478 38.8505 39.2559 30.2787 39.0768 19.664C38.9032 9.37505 30.4782 1.00654 20.0784 1.00198L20.0781 1.00227Z" fill="#A5BAD4"/>
<path d="M13.0908 19.2685V11.134C13.1466 11.134 13.1973 11.134 13.248 11.134C14.3004 11.134 15.3529 11.1311 16.405 11.1354C16.836 11.1371 17.2568 11.2089 17.6388 11.4187C18.4043 11.8389 18.716 12.5136 18.6597 13.3602C18.6021 14.2211 18.1413 14.7882 17.316 15.07C17.3328 15.0825 17.3447 15.0988 17.3598 15.1019C18.1615 15.2807 18.8473 16.1515 18.8279 17.1183C18.8031 18.3581 18.0049 19.213 16.7634 19.254C15.5607 19.2938 14.3562 19.2736 13.1526 19.2793C13.1347 19.2793 13.1167 19.2733 13.0908 19.2688V19.2685ZM14.1031 18.3789C14.4604 18.3789 14.8006 18.3814 15.1411 18.3783C15.6051 18.374 16.0719 18.3954 16.5328 18.3521C17.5198 18.2596 18.0578 17.3338 17.675 16.4157C17.4253 15.8167 16.9317 15.5784 16.3176 15.5662C15.6213 15.5523 14.9244 15.5628 14.2275 15.5634C14.1871 15.5634 14.1467 15.5699 14.1034 15.5736V18.3794L14.1031 18.3789ZM14.106 12.035V14.6527C14.1364 14.6561 14.1592 14.6606 14.1817 14.6606C14.8732 14.6609 15.5647 14.6621 16.2561 14.6592C16.3595 14.6589 16.4639 14.6453 16.5661 14.6279C17.2468 14.512 17.6317 14.0161 17.6149 13.2805C17.6004 12.6405 17.1483 12.1252 16.5064 12.0655C16.093 12.027 15.6745 12.0401 15.2581 12.0359C14.8797 12.0319 14.5017 12.035 14.1057 12.035H14.106Z" fill="#A5BAD4"/>
<path d="M14.0949 24.2378H18.5313V20.753H19.5367V28.8656H18.5429V25.1561H14.1026V28.8667H13.0908V20.7527H14.0949V24.2378Z" fill="#A5BAD4"/>
<path d="M26.0866 15.5433H21.6369V15.7187C21.6369 16.8517 21.6346 17.9847 21.6397 19.1175C21.6403 19.2484 21.605 19.288 21.4737 19.2832C21.1959 19.2732 20.9172 19.28 20.6328 19.28V11.1344C20.9465 11.1344 21.2534 11.1322 21.5603 11.1384C21.5865 11.139 21.6312 11.1945 21.6332 11.227C21.6417 11.3591 21.6369 11.4923 21.6369 11.6249C21.6369 12.5684 21.6369 13.5115 21.6369 14.455V14.6343H26.0812V11.143H27.073V19.2721H26.0866V15.543V15.5433Z" fill="#A5BAD4"/>
<path d="M21.1094 27.7325C21.3143 27.4704 21.5122 27.2176 21.708 26.967C21.8908 27.1293 22.0531 27.2973 22.2384 27.4339C23.1277 28.0904 24.1119 28.3042 25.1794 27.989C25.7396 27.8236 26.1074 27.4484 26.1803 26.8412C26.2318 26.413 26.0724 26.0709 25.7288 25.8152C25.3881 25.5619 24.9895 25.4377 24.5898 25.3176C24.0145 25.1448 23.4332 24.9896 22.8664 24.7929C22.5977 24.6998 22.3397 24.5512 22.106 24.3864C21.5204 23.9728 21.3138 23.3758 21.3801 22.6829C21.4666 21.7824 21.985 21.1721 22.8018 20.8754C24.2986 20.3317 25.6887 20.5617 26.9162 21.6119C26.9629 21.652 27.0107 21.691 27.0668 21.738C26.8524 21.9993 26.6523 22.2433 26.4451 22.4958C26.1353 22.1608 25.7809 21.9043 25.3607 21.7508C24.696 21.5083 24.0176 21.4129 23.3318 21.6486C22.8482 21.8149 22.5097 22.1309 22.428 22.6635C22.3762 23.0008 22.4855 23.281 22.7465 23.4985C23.0255 23.7308 23.3612 23.8503 23.7013 23.9543C24.3074 24.1396 24.92 24.305 25.5224 24.502C25.9477 24.6412 26.3406 24.8527 26.6651 25.1721C27.1118 25.6117 27.2641 26.1571 27.2336 26.7655C27.179 27.8572 26.4658 28.6202 25.4342 28.8736C24.236 29.1679 23.0748 29.0683 21.9842 28.4505C21.6562 28.2646 21.371 28.0238 21.1097 27.732L21.1094 27.7325Z" fill="#A5BAD4"/>
<path d="M10.4963 33.6731C10.3659 33.5906 10.2509 33.5177 10.1211 33.4354C10.4963 32.8507 10.8681 32.2708 11.251 31.6738C11.4175 31.7797 11.5786 31.876 11.7309 31.9847C11.7577 32.0038 11.7614 32.0769 11.7529 32.1208C11.6786 32.5017 11.5991 32.8812 11.5217 33.2615C11.5163 33.2883 11.5174 33.3162 11.5132 33.3757C11.5897 33.3204 11.6455 33.2806 11.7008 33.2404C11.9729 33.0426 12.2485 32.8496 12.5146 32.6443C12.6072 32.5729 12.6729 32.5743 12.7629 32.6403C12.8884 32.7326 13.0234 32.812 13.162 32.9019C12.7857 33.4878 12.4127 34.0686 12.0307 34.6636C11.9023 34.5804 11.7813 34.5024 11.6501 34.4179C11.9111 34.0125 12.1654 33.6179 12.4196 33.2234C12.4125 33.2165 12.4053 33.21 12.3979 33.2031C12.2422 33.3153 12.0865 33.4272 11.9308 33.5399C11.7045 33.7036 11.4776 33.867 11.2524 34.0324C11.1963 34.0737 11.1528 34.1025 11.077 34.0552C10.9976 34.0054 10.9999 33.9479 11.015 33.8747C11.1038 33.4391 11.192 33.0036 11.28 32.5677C11.2851 32.5427 11.2848 32.5162 11.2655 32.4815C11.0124 32.8735 10.7593 33.2655 10.4957 33.674L10.4963 33.6731Z" fill="#A5BAD4"/>
<path d="M34.7886 12.0476C34.8612 12.213 34.9233 12.3548 34.9882 12.5037C34.5908 12.8066 34.1976 13.1064 33.8042 13.4062C33.8085 13.4161 33.813 13.4258 33.8173 13.4358C34.3055 13.3615 34.7937 13.2872 35.2939 13.2109C35.3403 13.3168 35.3853 13.419 35.4328 13.5277C35.0363 13.8406 34.6471 14.1477 34.258 14.4546C34.2614 14.4646 34.2651 14.4743 34.2685 14.4842C34.7528 14.4 35.2367 14.3157 35.7372 14.2286C35.8004 14.3724 35.8641 14.5173 35.9359 14.6804C35.7414 14.7086 35.5604 14.7359 35.379 14.7607C34.9008 14.8259 34.4217 14.8868 33.944 14.9568C33.8239 14.9745 33.7473 14.9585 33.7108 14.8287C33.6841 14.7342 33.6368 14.6451 33.5921 14.5383C33.9651 14.2471 34.3394 13.955 34.7138 13.6629C34.7095 13.6544 34.7055 13.6461 34.7012 13.6376C34.3525 13.694 34.0032 13.7469 33.6553 13.807C33.2628 13.875 33.2534 13.873 33.1369 13.4955C33.1275 13.4651 33.1401 13.4096 33.1628 13.3905C33.6975 12.9453 34.2349 12.5034 34.7883 12.0474L34.7886 12.0476Z" fill="#A5BAD4"/>
<path d="M5.54157 20.4639C4.81678 20.4474 4.13299 20.4317 3.44123 20.416C3.44123 20.1849 3.43895 19.9685 3.44208 19.7522C3.44436 19.5962 3.45233 19.4399 3.45973 19.2841C3.4734 18.9929 3.62029 18.7971 3.86796 18.7378C4.1125 18.6792 4.31518 18.7791 4.4746 19.0473C4.58933 18.8056 4.77608 18.6954 5.03769 18.7142C5.31952 18.7344 5.53217 18.9334 5.53901 19.2164C5.54869 19.6229 5.54157 20.03 5.54157 20.4644V20.4639ZM5.14815 19.9996C5.14815 19.8034 5.149 19.6195 5.14815 19.4356C5.14729 19.2665 5.07869 19.1768 4.94261 19.1629C4.8017 19.1484 4.69238 19.2326 4.68042 19.3974C4.66619 19.5939 4.67701 19.792 4.67701 19.9996H5.14843H5.14815ZM4.28159 19.983C4.28159 19.7778 4.28672 19.5848 4.27988 19.3923C4.27533 19.2673 4.19818 19.1876 4.07435 19.1799C3.96446 19.1734 3.87223 19.2329 3.86056 19.3453C3.83864 19.5535 3.83664 19.7638 3.82611 19.983H4.28188H4.28159Z" fill="#A5BAD4"/>
<path d="M15.9655 5.22302C16.1873 5.42429 16.4039 5.62101 16.6405 5.83566C16.4777 5.88576 16.3365 5.93359 16.1921 5.96946C16.162 5.97686 16.1136 5.9464 16.0854 5.9205C15.9456 5.79267 15.7993 5.66969 15.6755 5.52763C15.5735 5.41063 15.4733 5.39298 15.3438 5.45931C15.3111 5.47611 15.2755 5.48692 15.2328 5.50372C15.3028 5.74001 15.3709 5.96918 15.4415 6.20745C15.3008 6.25101 15.1707 6.29144 15.0221 6.33755C14.8157 5.6714 14.6105 5.01008 14.4004 4.33197C14.7653 4.22493 15.1141 4.1028 15.4725 4.02309C15.7825 3.9542 16.0441 4.10992 16.1725 4.38407C16.316 4.6901 16.2528 4.96083 15.9653 5.22274L15.9655 5.22302ZM15.1132 5.12339C15.2914 5.06446 15.4631 5.01748 15.6265 4.95001C15.7589 4.89536 15.8132 4.76013 15.7779 4.63544C15.7369 4.49025 15.6199 4.402 15.4676 4.43275C15.2946 4.46748 15.1263 4.52726 14.9444 4.57936C15.0025 4.76696 15.0549 4.93606 15.1132 5.12339Z" fill="#A5BAD4"/>
<path d="M23.0335 35.636C23.2225 35.8643 23.4093 36.0895 23.6119 36.3343C23.4448 36.3625 23.2982 36.393 23.1502 36.4078C23.1163 36.4112 23.0688 36.3682 23.0417 36.3349C22.925 36.1917 22.8055 36.0497 22.7027 35.8968C22.619 35.7721 22.5245 35.7254 22.3824 35.7803C22.3528 35.7917 22.3184 35.7912 22.264 35.7994C22.2999 36.0403 22.3349 36.276 22.3733 36.5342C22.2304 36.5567 22.0929 36.5786 21.9378 36.6031C21.8282 35.917 21.7194 35.2375 21.6084 34.5411C21.8398 34.5021 22.0573 34.4634 22.2751 34.429C22.4197 34.4062 22.5652 34.3771 22.7109 34.3729C23.0264 34.3641 23.2635 34.5397 23.3532 34.8304C23.4517 35.1495 23.3597 35.41 23.0836 35.5947C23.0682 35.605 23.0548 35.6181 23.0335 35.6354V35.636ZM22.1109 34.8537C22.1416 35.0496 22.1689 35.2246 22.1982 35.412C22.379 35.3832 22.5436 35.3644 22.7047 35.3288C22.8598 35.2944 22.9487 35.1563 22.927 35.0117C22.9057 34.8674 22.7761 34.7606 22.6201 34.7763C22.4564 34.7925 22.2945 34.8252 22.1109 34.854V34.8537Z" fill="#A5BAD4"/>
<path d="M9.02271 32.1482C8.42945 32.1482 7.90763 31.6246 7.9082 31.0297C7.90877 30.4535 8.42318 29.939 8.99937 29.9385C9.58808 29.9382 10.1164 30.4694 10.1142 31.0596C10.1122 31.6383 9.60089 32.1479 9.02242 32.1479L9.02271 32.1482ZM8.96663 31.7212C9.32931 31.7172 9.68885 31.3551 9.68914 30.9929C9.68942 30.669 9.37998 30.3624 9.0563 30.3661C8.69903 30.3703 8.33066 30.7418 8.3318 31.0966C8.33294 31.4205 8.64181 31.7243 8.96634 31.7209L8.96663 31.7212Z" fill="#A5BAD4"/>
<path d="M5.85326 14.4463C6.06762 14.5377 6.28426 14.63 6.51656 14.7287C6.46133 14.8631 6.40838 14.9921 6.34803 15.1387C5.70295 14.8688 5.06442 14.6018 4.41309 14.329C4.56026 13.9866 4.68837 13.6504 4.84722 13.3292C4.98927 13.0417 5.26911 12.9293 5.5609 12.995C5.88799 13.0688 6.11516 13.3398 6.0867 13.6253C6.08499 13.6427 6.0921 13.6612 6.09837 13.6971C6.39585 13.6563 6.68879 13.6165 6.99994 13.5741C6.93674 13.725 6.88407 13.861 6.82116 13.9923C6.80721 14.0213 6.75939 14.0461 6.72409 14.0509C6.55043 14.0745 6.37621 14.0939 6.2017 14.109C5.94009 14.1315 5.90365 14.1634 5.85298 14.4466L5.85326 14.4463ZM5.4735 14.2898C5.54382 14.115 5.61328 13.9601 5.66822 13.8001C5.7169 13.6583 5.64943 13.5217 5.51621 13.4596C5.39038 13.4007 5.24434 13.4369 5.17402 13.5684C5.09005 13.725 5.02742 13.8929 4.9497 14.0691C5.12848 14.1446 5.29217 14.2135 5.4735 14.2898Z" fill="#A5BAD4"/>
<path d="M30.4425 8.02646C30.6899 8.25307 30.9259 8.46886 31.1692 8.69176C31.3568 8.48822 31.5359 8.29406 31.7247 8.08938C31.834 8.18873 31.9373 8.28268 32.0572 8.39171C31.584 8.90613 31.1152 9.41543 30.6383 9.93355C30.5276 9.83078 30.4245 9.73512 30.3107 9.62922C30.5091 9.41144 30.7021 9.19935 30.9045 8.9773C30.662 8.75639 30.4254 8.54117 30.1774 8.31513C29.9745 8.5332 29.7792 8.74301 29.5779 8.95908C29.4672 8.85688 29.3638 8.7618 29.252 8.65874C29.7245 8.14432 30.1914 7.63588 30.6679 7.11719C30.7787 7.21825 30.8814 7.3122 30.9959 7.41696C30.8128 7.61851 30.6358 7.81352 30.4425 8.02589V8.02646Z" fill="#A5BAD4"/>
<path d="M10.9392 6.09105C11.0665 6.00052 11.1781 5.92138 11.3036 5.83228C11.703 6.40022 12.0993 6.96332 12.5069 7.54321C12.3859 7.63033 12.2726 7.71175 12.1428 7.80512C11.974 7.56741 11.8081 7.33397 11.6313 7.08488C11.3631 7.27362 11.1021 7.45753 10.8271 7.65111C10.9956 7.89224 11.1596 8.12681 11.3304 8.37107C11.2068 8.45847 11.0924 8.53932 10.9668 8.62842C10.5652 8.05621 10.1692 7.49197 9.76465 6.91578C9.88592 6.83037 9.99694 6.75208 10.1259 6.66098C10.2822 6.8819 10.4362 7.09996 10.6005 7.33198C10.8732 7.14039 11.1388 6.95364 11.4098 6.76319C11.2512 6.53658 11.0998 6.31994 10.9392 6.09048V6.09105Z" fill="#A5BAD4"/>
<path d="M7.13158 29.0698C6.95024 28.792 6.77516 28.5241 6.5924 28.2443C6.34559 28.4042 6.10589 28.5597 5.8531 28.7237C5.77026 28.599 5.69311 28.4828 5.60742 28.3541C6.19442 27.9692 6.77089 27.5918 7.35875 27.2063C7.44045 27.3276 7.51874 27.4437 7.6067 27.5741C7.37668 27.727 7.15464 27.875 6.91892 28.0316C7.10026 28.3066 7.27648 28.5733 7.46209 28.8552C7.69182 28.7057 7.91557 28.5602 8.14929 28.4082C8.23185 28.5358 8.30871 28.6536 8.39269 28.7832C7.81053 29.1646 7.23378 29.5427 6.64364 29.9293C6.56166 29.8046 6.48252 29.6845 6.39768 29.5555C6.64421 29.3921 6.88305 29.2341 7.13129 29.0695L7.13158 29.0698Z" fill="#A5BAD4"/>
<path d="M21.8027 5.5185C21.9004 4.98444 21.994 4.47287 22.088 3.96129C22.1119 3.83119 22.1415 3.70166 22.1591 3.57071C22.17 3.49214 22.199 3.46139 22.279 3.47933C22.3843 3.50324 22.4911 3.52203 22.6152 3.54651C22.5679 3.81041 22.5215 4.0689 22.4709 4.35102C22.79 4.41052 23.1071 4.46945 23.4413 4.53151C23.4923 4.26106 23.5418 3.99887 23.5936 3.72501C23.7417 3.75177 23.8794 3.77653 24.0309 3.80386C23.9054 4.49137 23.7815 5.16863 23.6551 5.86041C23.5054 5.83222 23.3648 5.80603 23.2153 5.77785C23.2614 5.52619 23.3018 5.28933 23.3494 5.0539C23.3707 4.94914 23.3488 4.90274 23.2321 4.88622C22.9981 4.85349 22.7669 4.80139 22.5344 4.75869C22.4936 4.75129 22.4518 4.75043 22.3994 4.74559C22.3453 5.03227 22.2927 5.30955 22.238 5.59992C22.0925 5.57259 21.9562 5.54697 21.803 5.51822L21.8027 5.5185Z" fill="#A5BAD4"/>
<path d="M26.5643 6.92419C26.3864 6.85245 26.2424 6.79437 26.0935 6.73459C26.0935 6.66228 26.0824 6.58969 26.0958 6.52193C26.1219 6.38955 26.067 6.32892 25.9457 6.28678C25.7584 6.22159 25.5759 6.14217 25.394 6.06302C25.3109 6.02715 25.2543 6.02573 25.1868 6.1043C25.0188 6.29931 25.0137 6.29504 24.7697 6.19626C24.6997 6.16807 24.6305 6.13818 24.5488 6.1043C24.7663 5.87029 24.9778 5.6417 25.1902 5.41423C25.4615 5.12357 25.7351 4.83548 26.0038 4.54254C26.0568 4.48475 26.1012 4.46852 26.1738 4.50325C26.3093 4.56816 26.5028 4.58979 26.5715 4.69513C26.6406 4.8016 26.5897 4.98778 26.5877 5.13895C26.5808 5.64056 26.572 6.14188 26.5646 6.64349C26.5635 6.72776 26.5646 6.81174 26.5646 6.92419H26.5643ZM25.5301 5.69863C25.7448 5.78318 25.9338 5.85777 26.1504 5.94317V5.00885C25.9409 5.24172 25.7448 5.46007 25.5301 5.69863Z" fill="#A5BAD4"/>
<path d="M31.261 10.6127C31.5383 10.5395 31.7982 10.4712 32.0578 10.4029C32.4831 10.291 32.909 10.1817 33.3326 10.0649C33.4052 10.045 33.4414 10.059 33.4855 10.1168C33.7622 10.4783 33.7642 10.4775 33.5194 10.8544C33.1951 11.3543 32.8697 11.8533 32.5324 12.3723C32.4288 12.2291 32.334 12.0981 32.2432 11.9723C32.2491 11.9569 32.2497 11.9513 32.2528 11.9481C32.4834 11.7264 32.404 11.5285 32.2158 11.3275C32.1259 11.2316 32.0544 11.1171 31.9818 11.0064C31.9388 10.9406 31.897 10.925 31.8184 10.9469C31.5517 11.0215 31.5505 11.0178 31.3908 10.796C31.3521 10.7425 31.3143 10.6884 31.2607 10.613L31.261 10.6127ZM33.2002 10.5705C33.1937 10.5614 33.1871 10.5526 33.1806 10.5438C32.8979 10.6244 32.6149 10.7046 32.3132 10.7906C32.4436 10.9717 32.5637 11.1382 32.6941 11.3193C32.8709 11.0576 33.0357 10.8142 33.2002 10.5708V10.5705Z" fill="#A5BAD4"/>
<path d="M34.1643 16.1008C34.455 16.1515 34.7283 16.1993 35.0013 16.2472C35.4115 16.3189 35.8212 16.3935 36.2319 16.4607C36.3287 16.4763 36.3865 16.5039 36.3925 16.6135C36.3973 16.7024 36.4127 16.7943 36.4437 16.8774C36.4907 17.0033 36.4363 17.0613 36.3347 17.124C35.7873 17.4627 35.2441 17.8086 34.699 18.1514C34.6642 18.1733 34.6272 18.191 34.5786 18.2174C34.5458 18.0663 34.5097 17.9302 34.4914 17.7916C34.4869 17.7577 34.5327 17.7042 34.5689 17.68C34.8006 17.5257 34.8012 17.5277 34.7442 17.2495C34.7121 17.0918 34.6773 16.9347 34.6534 16.7758C34.64 16.6884 34.6101 16.6471 34.5148 16.6338C34.25 16.5965 34.2503 16.5911 34.1996 16.3257C34.1866 16.2577 34.178 16.1891 34.1641 16.1008H34.1643ZM35.9396 16.8712C35.9399 16.8601 35.9404 16.8487 35.9407 16.8376C35.6449 16.7926 35.3492 16.7473 35.0352 16.6995C35.0804 16.9236 35.1206 17.1217 35.1644 17.3378C35.4317 17.1769 35.6857 17.0241 35.9399 16.8712H35.9396Z" fill="#A5BAD4"/>
<path d="M30.2705 30.4754C30.6053 30.1155 30.9369 29.7597 31.2794 29.3916C31.3745 29.479 31.4661 29.5633 31.5678 29.6566C31.3324 29.9103 31.1049 30.1557 30.8641 30.415C30.9682 30.5135 31.0685 30.6083 31.1795 30.7131C31.4132 30.4654 31.6395 30.2257 31.8758 29.9755C31.9697 30.0637 32.0583 30.1466 32.1588 30.2408C31.9302 30.4871 31.7064 30.7285 31.469 30.9844C31.5857 31.0931 31.6979 31.1973 31.8154 31.3069C32.054 31.0533 32.2837 30.809 32.5229 30.5548C32.6199 30.6445 32.7113 30.7293 32.8112 30.8218C32.4728 31.1851 32.1414 31.5404 31.8004 31.9062C31.2882 31.4274 30.7846 30.9565 30.2705 30.476V30.4754Z" fill="#A5BAD4"/>
<path d="M14.1323 33.3472C14.5946 33.5271 15.0427 33.7016 15.5107 33.8838C15.4632 34.0073 15.4182 34.1238 15.3698 34.2493C15.0456 34.1241 14.7293 34.0019 14.4036 33.8761C14.3507 34.0119 14.3014 34.1389 14.245 34.2832C14.5559 34.4056 14.8619 34.526 15.1856 34.6536C15.1392 34.774 15.0948 34.8896 15.0461 35.0157C14.7284 34.8933 14.4221 34.7748 14.1024 34.6516C14.0432 34.8002 13.9883 34.9388 13.9282 35.0903C14.2525 35.2184 14.5667 35.3425 14.893 35.4715C14.8446 35.5947 14.8002 35.7075 14.7495 35.8359C14.2886 35.6559 13.8365 35.4797 13.3711 35.2981C13.6239 34.6499 13.8738 34.0091 14.132 33.3472H14.1323Z" fill="#A5BAD4"/>
<path d="M3.96899 15.7637C4.1025 15.7921 4.22093 15.8175 4.3533 15.8459C4.28156 16.1844 4.2121 16.5112 4.13894 16.8566C4.28498 16.8876 4.4202 16.9161 4.56681 16.9474C4.64139 16.6095 4.71228 16.2878 4.78459 15.9607C4.91355 15.9883 5.02827 16.0128 5.16121 16.0415C5.09204 16.3715 5.02428 16.6929 4.95368 17.0297C5.10826 17.0644 5.25373 17.0968 5.41714 17.1336C5.49058 16.7956 5.56232 16.4657 5.63719 16.1212C5.76387 16.1483 5.88173 16.1736 6.01723 16.2027C5.9139 16.6858 5.81227 17.1595 5.70751 17.6483C5.0203 17.5011 4.34732 17.3568 3.66211 17.2099C3.76516 16.7242 3.8648 16.2536 3.96871 15.764L3.96899 15.7637Z" fill="#A5BAD4"/>
<path d="M17.6884 5.63514C17.607 4.93994 17.5276 4.25984 17.4453 3.55525C17.9318 3.49831 18.4126 3.44195 18.9111 3.3833C18.9271 3.51425 18.9419 3.63382 18.9584 3.76961C18.6173 3.81089 18.286 3.85103 17.9367 3.89345C17.9512 4.03608 17.9648 4.17073 17.9808 4.32845C18.3164 4.29087 18.6466 4.25386 18.9871 4.21543C19.0028 4.34524 19.0173 4.46538 19.0332 4.59832C18.695 4.6396 18.3685 4.67974 18.0275 4.72159C18.0471 4.88101 18.0651 5.02876 18.0853 5.19245C18.4309 5.15317 18.7628 5.11559 19.111 5.07602C19.1263 5.20327 19.1408 5.32341 19.1576 5.46006C18.6706 5.51813 18.1926 5.57507 17.6887 5.63485L17.6884 5.63514Z" fill="#A5BAD4"/>
<path d="M17.9878 34.7127C17.8711 34.8194 17.7772 34.9054 17.6721 35.0014C17.5221 34.8305 17.3473 34.7067 17.1253 34.6657C17.0746 34.6563 17.0137 34.6378 16.9727 34.6566C16.9052 34.6876 16.8212 34.7349 16.7993 34.7955C16.7831 34.8399 16.8406 34.9353 16.8913 34.9743C16.9761 35.0392 17.0817 35.0771 17.1785 35.1269C17.2835 35.181 17.3926 35.2294 17.4922 35.292C17.7453 35.4511 17.8444 35.6607 17.7951 35.9115C17.7402 36.1913 17.5534 36.3843 17.2562 36.4185C16.7677 36.4746 16.3535 36.3237 16.0312 35.9226C16.136 35.8232 16.2342 35.7299 16.3401 35.6294C16.5015 35.8477 16.7116 35.9975 16.9886 36.0333C17.0481 36.041 17.1199 36.0467 17.1685 36.0208C17.2332 35.9864 17.3114 35.9274 17.3265 35.8651C17.3388 35.8144 17.2821 35.7199 17.2295 35.6857C17.0991 35.6015 16.9522 35.5437 16.8147 35.4702C16.719 35.419 16.6205 35.3686 16.5363 35.3017C16.2089 35.0415 16.2542 34.547 16.6285 34.356C16.9957 34.1687 17.3487 34.266 17.6812 34.459C17.7891 34.5217 17.8768 34.6193 17.9881 34.713L17.9878 34.7127Z" fill="#A5BAD4"/>
<path d="M32.9629 27.4548C33.0093 27.5835 33.0534 27.7059 33.0853 27.7947C32.9247 27.9183 32.7758 28.0171 32.6474 28.1381C32.5828 28.199 32.5353 28.2958 32.5188 28.3835C32.5079 28.4424 32.5492 28.5335 32.5976 28.5736C32.6306 28.601 32.7294 28.585 32.7753 28.5537C32.88 28.4823 32.9703 28.3892 33.0671 28.3057C33.1422 28.2408 33.2154 28.1725 33.2954 28.1142C33.5063 27.9599 33.7292 27.9058 33.9695 28.0507C34.2106 28.1964 34.3051 28.4114 34.2755 28.6881C34.2294 29.1211 33.7753 29.6067 33.3281 29.6867C33.2791 29.5649 33.229 29.4408 33.1752 29.3078C33.4058 29.2424 33.6037 29.1416 33.7355 28.9503C33.7904 28.8706 33.8411 28.7766 33.8545 28.6835C33.8639 28.618 33.8263 28.5178 33.7748 28.48C33.7329 28.4489 33.6253 28.4649 33.5726 28.4993C33.463 28.5711 33.3725 28.6721 33.27 28.7555C33.1601 28.8449 33.0542 28.9446 32.931 29.0106C32.5626 29.2079 32.1305 28.9534 32.1085 28.5358C32.0841 28.0746 32.461 27.5878 32.9626 27.4548H32.9629Z" fill="#A5BAD4"/>
<path d="M8.83222 8.09093C8.85386 8.21961 8.87435 8.33974 8.89286 8.44992C8.74369 8.51539 8.59423 8.56379 8.4647 8.64407C8.37219 8.70129 8.28878 8.79153 8.23526 8.88633C8.2048 8.93985 8.21789 9.05173 8.25689 9.1007C8.28707 9.13828 8.39895 9.14369 8.45616 9.11949C8.57687 9.06853 8.68448 8.98683 8.79977 8.92164C8.89827 8.86584 8.99733 8.8089 9.10124 8.76449C9.32443 8.66941 9.53566 8.68677 9.72041 8.85787C9.90716 9.03095 9.97263 9.24389 9.9083 9.48958C9.79329 9.92969 9.25468 10.3396 8.77984 10.3428C8.75337 10.2147 8.72632 10.0834 8.69729 9.94222C8.96602 9.91916 9.1986 9.83632 9.37282 9.63647C9.4215 9.58067 9.47303 9.51377 9.48641 9.4446C9.49893 9.37912 9.48555 9.28119 9.44257 9.24048C9.40214 9.20233 9.29881 9.19578 9.24016 9.21856C9.12715 9.26268 9.02751 9.33983 8.9199 9.39905C8.80034 9.46509 8.68362 9.54167 8.55637 9.58807C8.15042 9.73526 7.78262 9.46253 7.79116 9.02981C7.80027 8.5766 8.36165 8.06303 8.83222 8.09093Z" fill="#A5BAD4"/>
<path d="M19.5037 34.989C19.4971 35.126 19.4906 35.2612 19.4823 35.4294H20.5C20.4926 35.5823 20.4867 35.7019 20.4807 35.8229H19.4781C19.4704 35.9672 19.4624 36.115 19.4536 36.2812C19.7562 36.2915 20.0431 36.3108 20.3298 36.3068C20.4693 36.3048 20.5035 36.3555 20.4872 36.4785C20.4781 36.5477 20.4778 36.6183 20.4724 36.7062C19.9839 36.6914 19.5042 36.6766 19.0029 36.6615C19.0251 35.9641 19.0471 35.2769 19.0695 34.5671C19.5575 34.5837 20.0372 34.5999 20.5299 34.6164V34.9885H19.504L19.5037 34.989Z" fill="#A5BAD4"/>
<path d="M6.78358 11.6266C6.69846 11.3641 6.64722 11.1261 6.54559 10.9115C6.40496 10.614 6.43457 10.3641 6.6606 10.1312C6.67939 10.1118 6.69448 10.0888 6.72352 10.0518C6.83426 10.4301 6.94386 10.7897 7.04264 11.1521C7.06911 11.2491 7.10783 11.2807 7.20775 11.2702C7.56075 11.2326 7.91432 11.203 8.26788 11.1706C8.33336 11.1646 8.39855 11.1592 8.49705 11.1509C8.39257 11.3089 8.30546 11.4467 8.21009 11.5788C8.19358 11.6016 8.14348 11.6056 8.10818 11.6081C7.79703 11.6309 7.48588 11.6514 7.16419 11.673C7.17217 11.8026 7.19636 11.9107 7.3182 11.9839C7.46339 12.071 7.60117 12.1709 7.75376 12.2731C7.67177 12.3981 7.59519 12.5148 7.51065 12.6441C6.9245 12.2566 6.34604 11.8743 5.76074 11.4871C5.84728 11.3573 5.92528 11.2403 6.00756 11.1168C6.26291 11.2847 6.50716 11.445 6.78358 11.6269V11.6266Z" fill="#A5BAD4"/>
<path d="M23.9678 34.1144C24.111 34.0637 24.2371 34.0093 24.3686 33.978C24.4099 33.968 24.4808 34.0073 24.5129 34.0455C24.7999 34.3854 25.0809 34.7304 25.3641 35.0735C25.4048 35.123 25.4484 35.1703 25.5241 35.2104C25.5241 35.0473 25.5241 34.8844 25.5241 34.7213C25.5241 34.3709 25.5267 34.0204 25.5224 33.6703C25.5213 33.5863 25.5449 33.541 25.6283 33.5174C25.7453 33.4838 25.8592 33.4388 25.9887 33.3936C25.9887 33.6657 25.9932 33.9233 25.9875 34.1804C25.9782 34.6106 25.9579 35.0407 25.9514 35.4712C25.9497 35.5853 25.9269 35.6548 25.8045 35.6827C25.6727 35.7129 25.5318 35.8159 25.4202 35.7877C25.3143 35.761 25.24 35.6061 25.1537 35.5059C24.7896 35.0826 24.4258 34.6584 24.0626 34.2345C24.033 34.1998 24.0059 34.163 23.9678 34.1149V34.1144Z" fill="#A5BAD4"/>
<path d="M29.8799 31.5008C29.8221 31.6169 29.764 31.7339 29.7068 31.8492C29.2072 31.7709 28.9123 31.9543 28.8579 32.371C28.8129 32.7152 29.1164 33.1032 29.4645 33.1465C29.8614 33.196 30.1253 32.9507 30.1717 32.4784C30.2972 32.4542 30.4259 32.4297 30.554 32.4049C30.6599 32.8077 30.4216 33.2419 29.9838 33.4562C29.4967 33.6945 28.9629 33.5684 28.6381 33.138C28.3216 32.7186 28.3406 32.1646 28.6848 31.7792C29.0236 31.3997 29.5064 31.2827 29.8799 31.5005V31.5008Z" fill="#A5BAD4"/>
<path d="M34.6553 19.9401V19.492C34.9027 19.492 35.1426 19.4963 35.3826 19.4892C35.4487 19.4872 35.523 19.4658 35.5779 19.4297C35.9059 19.2139 36.2292 18.991 36.5543 18.7709C36.5996 18.7405 36.6463 18.7117 36.722 18.6633C36.722 18.8404 36.7277 18.9856 36.718 19.1296C36.7158 19.1647 36.6691 19.2048 36.6335 19.2284C36.3978 19.3853 36.1592 19.5382 35.903 19.7047C36.1373 19.8439 36.3508 19.9828 36.5757 20.0995C36.7106 20.1696 36.7753 20.2521 36.7525 20.4064C36.7397 20.4941 36.7502 20.5852 36.7502 20.6917C36.7084 20.6718 36.6751 20.6595 36.6454 20.6413C36.299 20.4281 35.9548 20.2114 35.6061 20.0025C35.5455 19.966 35.4669 19.9444 35.396 19.9424C35.1552 19.935 34.914 19.9396 34.6561 19.9396L34.6553 19.9401Z" fill="#A5BAD4"/>
<path d="M28.4708 6.07969C28.2938 5.96724 28.1281 5.8622 27.9536 5.75145C28.0245 5.63872 28.0891 5.53624 28.162 5.42065C28.6359 5.71587 29.1002 6.00482 29.5762 6.30118C29.5062 6.41476 29.4424 6.5181 29.3718 6.63255C29.1979 6.52636 29.0299 6.42387 28.8531 6.31598C28.5545 6.79481 28.2593 7.26767 27.9541 7.75704C27.83 7.68075 27.7116 7.60787 27.5732 7.52303C27.873 7.04106 28.1685 6.56565 28.4705 6.07998L28.4708 6.07969Z" fill="#A5BAD4"/>
<path d="M5.02322 24.8276C4.71178 24.825 4.46525 24.5768 4.46582 24.267C4.46639 23.9613 4.72175 23.7076 5.02834 23.7085C5.33636 23.7094 5.58659 23.9633 5.58374 24.2719C5.5809 24.585 5.33351 24.8301 5.02322 24.8276Z" fill="#A5BAD4"/>
<path d="M34.5843 24.2761C34.582 23.9587 34.8211 23.7122 35.1343 23.7088C35.44 23.7054 35.6968 23.961 35.6968 24.2682C35.6968 24.5779 35.444 24.8299 35.1354 24.8273C34.8268 24.825 34.586 24.5845 34.584 24.2759L34.5843 24.2761Z" fill="#A5BAD4"/>
<path d="M12.638 5.11904C12.7775 5.05043 12.9027 4.98894 13.0371 4.92261C13.3414 5.54919 13.642 6.16781 13.9501 6.80236C13.816 6.86869 13.6913 6.93019 13.5492 7.0005C13.2455 6.37363 12.9446 5.75217 12.6377 5.11904H12.638Z" fill="#A5BAD4"/>
<path d="M26.7617 32.9793C26.8964 32.9073 27.0205 32.841 27.1571 32.7678C27.3231 33.0787 27.4856 33.3825 27.6476 33.6862C27.8099 33.9908 27.9719 34.2954 28.1421 34.6154C28.0129 34.6857 27.8902 34.7523 27.753 34.8269C27.4219 34.2097 27.0945 33.5997 26.7617 32.9796V32.9793Z" fill="#A5BAD4"/>
</svg>
