<svg width="60" height="40" viewBox="0 0 60 40" fill="none" xmlns="http://www.w3.org/2000/svg">
<path d="M29.5515 0C34.4566 2.33583 39.3585 4.68697 44.2732 7.0075C48.8227 9.15659 53.3786 11.2965 57.9567 13.3905C58.7662 13.7609 59.1631 14.1558 59.1186 15.0773C59.0361 16.8039 59.0932 18.5397 59.0932 20.4715H55.2295V39.9969H3.27981V20.5327H0.0160913C0.0160913 18.4111 -0.0410555 16.4335 0.0668885 14.4681C0.0891123 14.0946 0.711378 13.6354 1.15903 13.4211C10.2867 9.05863 19.4301 4.72677 28.5673 0.382673C28.7991 0.275524 29.0118 0.128578 29.234 0C29.3388 0 29.4467 0 29.5515 0ZM48.6639 34.1405C48.7592 33.8895 48.8227 33.7946 48.8227 33.7027C48.8386 28.1463 48.8703 22.5899 48.8227 17.0366C48.8195 16.6355 48.3274 16.0722 47.9115 15.861C42.1206 12.9251 36.298 10.0536 30.5039 7.12383C29.669 6.70136 28.9959 6.70136 28.1577 7.12077C22.3034 10.0444 16.4141 12.9037 10.5692 15.8488C10.1057 16.0814 9.63581 16.8039 9.62946 17.306C9.55962 22.4032 9.58501 27.5004 9.59136 32.5976C9.59136 33.0874 9.64534 33.5803 9.68026 34.1405H48.6608H48.6639Z" fill="#A5BAD4"/>
</svg>
