<svg width="124" height="60" viewBox="0 0 124 60" fill="none" xmlns="http://www.w3.org/2000/svg">
<g clip-path="url(#clip0_126_3288)">
<path d="M60.1719 16.7175H57.416V15.0348H64.7628V16.7175H62.0069V24.7168H60.1719V16.7175Z" fill="white"/>
<path d="M71.5858 17.9364C72.0363 18.367 72.2615 18.9367 72.2615 19.639V24.7168H70.4265V20.6823C70.4265 20.053 70.3304 19.5992 70.1416 19.3243C69.9528 19.0494 69.6381 18.9135 69.2042 18.9135C68.714 18.9135 68.2039 19.1885 67.6739 19.735V24.7168H65.8389V14.2266H67.6739V18.2047C68.035 17.8801 68.3861 17.6449 68.7239 17.5025C69.0618 17.3601 69.4261 17.2872 69.817 17.2872C70.549 17.2872 71.1419 17.5025 71.5891 17.9331L71.5858 17.9364Z" fill="white"/>
<path d="M80.2054 21.6429H75.1541C75.2269 22.1994 75.4356 22.6267 75.7735 22.9215C76.1113 23.2196 76.5651 23.3653 77.1282 23.3653C77.5456 23.3653 77.9961 23.2891 78.4863 23.1368C78.9732 22.9844 79.4237 22.7724 79.8411 22.5041H79.8974V23.9913C79.5264 24.2795 79.1024 24.4981 78.6254 24.6505C78.1484 24.8029 77.645 24.8791 77.115 24.8791C76.3531 24.8791 75.6907 24.7267 75.1243 24.4186C74.5579 24.1139 74.1239 23.6734 73.8159 23.097C73.5111 22.5207 73.3555 21.8483 73.3555 21.0798C73.3555 20.3113 73.5012 19.6654 73.7927 19.0891C74.0842 18.5127 74.4949 18.0689 75.0249 17.7542C75.5549 17.4395 76.1643 17.2805 76.8599 17.2805C77.5555 17.2805 78.1286 17.4329 78.632 17.7409C79.1388 18.0457 79.5231 18.4862 79.7947 19.0626C80.063 19.6389 80.1988 20.3113 80.1988 21.0798V21.6363L80.2054 21.6429ZM75.7735 19.1951C75.482 19.4832 75.2833 19.8807 75.1806 20.3908H78.3107C78.2379 19.8608 78.0789 19.46 77.8371 19.1818C77.5953 18.9036 77.2707 18.7645 76.8633 18.7645C76.426 18.7645 76.0617 18.9069 75.7702 19.1951H75.7735Z" fill="white"/>
<path d="M86.1868 24.2729C85.4713 23.8655 84.9314 23.2858 84.5604 22.5339C84.1894 21.782 84.0039 20.8976 84.0039 19.8774C84.0039 18.8572 84.1894 17.9728 84.5604 17.2209C84.9314 16.469 85.4746 15.8893 86.1868 15.4819C86.9022 15.0745 87.7535 14.8691 88.7472 14.8691C89.7409 14.8691 90.5922 15.0745 91.3077 15.4819C92.0231 15.8893 92.563 16.469 92.934 17.2209C93.305 17.9728 93.4905 18.8572 93.4905 19.8774C93.4905 20.8976 93.305 21.782 92.934 22.5339C92.563 23.2858 92.0198 23.8655 91.3077 24.2729C90.5922 24.6803 89.7409 24.8857 88.7472 24.8857C87.7535 24.8857 86.9022 24.6803 86.1868 24.2729ZM90.8042 22.3319C91.3043 21.7622 91.5561 20.944 91.5561 19.8774C91.5561 18.8108 91.3043 17.9927 90.8042 17.423C90.304 16.8532 89.6184 16.5684 88.7439 16.5684C87.8694 16.5684 87.1871 16.8532 86.6836 17.423C86.1834 17.9927 85.9317 18.8108 85.9317 19.8774C85.9317 20.944 86.1834 21.7622 86.6836 22.3319C87.1838 22.9016 87.8694 23.1865 88.7439 23.1865C89.6184 23.1865 90.3007 22.9016 90.8042 22.3319Z" fill="white"/>
<path d="M100.636 17.9364C101.086 18.367 101.311 18.9367 101.311 19.639V24.7168H99.4763V20.6823C99.4763 20.053 99.3802 19.5992 99.1914 19.3243C99.0026 19.0494 98.6879 18.9135 98.254 18.9135C97.7638 18.9135 97.2537 19.1885 96.7237 19.735V24.7168H94.8887V14.2266H96.7237V18.2047C97.0848 17.8801 97.4359 17.6449 97.7737 17.5025C98.1116 17.3601 98.476 17.2872 98.8668 17.2872C99.5988 17.2872 100.192 17.5025 100.639 17.9331L100.636 17.9364Z" fill="white"/>
<path d="M102.743 16.0483C102.521 15.8364 102.408 15.5581 102.408 15.2136C102.408 14.8691 102.521 14.5909 102.743 14.3789C102.965 14.1669 103.233 14.0576 103.551 14.0576C103.869 14.0576 104.134 14.1636 104.359 14.3789C104.581 14.5909 104.694 14.8691 104.694 15.2136C104.694 15.5581 104.581 15.8364 104.359 16.0483C104.137 16.2603 103.869 16.3696 103.551 16.3696C103.233 16.3696 102.968 16.2636 102.743 16.0483ZM104.468 17.4528V24.7135H102.633V17.466L104.468 17.4528Z" fill="white"/>
<path d="M107.068 24.4186C106.512 24.1072 106.081 23.6667 105.78 23.0904C105.478 22.514 105.329 21.8482 105.329 21.0864C105.329 20.3245 105.478 19.6588 105.78 19.0824C106.081 18.5061 106.512 18.0655 107.068 17.7542C107.625 17.4428 108.27 17.2871 109.003 17.2871C109.735 17.2871 110.38 17.4428 110.937 17.7542C111.493 18.0655 111.924 18.5094 112.225 19.0824C112.527 19.6588 112.676 20.3245 112.676 21.0864C112.676 21.8482 112.524 22.514 112.225 23.0904C111.924 23.6667 111.493 24.1072 110.937 24.4186C110.38 24.73 109.735 24.8857 109.003 24.8857C108.27 24.8857 107.625 24.73 107.068 24.4186ZM110.281 22.7757C110.586 22.3815 110.741 21.8184 110.741 21.0864C110.741 20.3544 110.589 19.778 110.281 19.3905C109.976 18.9996 109.549 18.8075 109.003 18.8075C108.456 18.8075 108.029 19.0029 107.724 19.3905C107.419 19.7813 107.264 20.3444 107.264 21.0864C107.264 21.8283 107.416 22.3815 107.724 22.7757C108.029 23.1699 108.456 23.3686 109.003 23.3686C109.549 23.3686 109.976 23.1732 110.281 22.7757Z" fill="white"/>
<path d="M63.6072 37.9662L61.633 34.2795H59.9073V37.9662H58.0723V28.2842H61.5635C62.8156 28.2842 63.753 28.5359 64.3724 29.0361C64.9951 29.5363 65.3031 30.265 65.3031 31.2189C65.3031 31.8946 65.1508 32.471 64.8427 32.9447C64.538 33.4183 64.0809 33.7694 63.478 34.0013L65.6211 37.9662H63.6039H63.6072ZM59.9073 32.6664H61.5767C62.1895 32.6664 62.64 32.5604 62.9315 32.3451C63.223 32.1331 63.3687 31.7688 63.3687 31.2587C63.3687 30.7486 63.2263 30.4206 62.9381 30.2153C62.6499 30.0099 62.1928 29.9105 61.5602 29.9105H59.904V32.6664H59.9073Z" fill="white"/>
<path d="M73.0833 34.8923H68.032C68.1049 35.4488 68.3136 35.876 68.6514 36.1708C68.9893 36.469 69.4431 36.6147 70.0062 36.6147C70.4235 36.6147 70.874 36.5385 71.3642 36.3862C71.8511 36.2338 72.3016 36.0218 72.719 35.7535H72.7753V37.2407C72.4043 37.5289 71.9803 37.7475 71.5034 37.8999C71.0264 38.0523 70.5229 38.1285 69.9929 38.1285C69.2311 38.1285 68.5686 37.9761 68.0022 37.668C67.4358 37.3633 67.0019 36.9228 66.6938 36.3464C66.3891 35.7701 66.2334 35.0976 66.2334 34.3292C66.2334 33.5607 66.3791 32.9148 66.6706 32.3385C66.9621 31.7621 67.3728 31.3182 67.9028 31.0036C68.4328 30.6889 69.0423 30.5299 69.7379 30.5299C70.4335 30.5299 71.0065 30.6823 71.51 30.9903C72.0168 31.2951 72.401 31.7356 72.6726 32.312C72.9409 32.8883 73.0767 33.5607 73.0767 34.3292V34.8857L73.0833 34.8923ZM68.6514 32.4444C68.3599 32.7326 68.1612 33.1301 68.0585 33.6402H71.1887C71.1158 33.1102 70.9568 32.7094 70.715 32.4312C70.4732 32.153 70.1486 32.0138 69.7412 32.0138C69.304 32.0138 68.9396 32.1563 68.6481 32.4444H68.6514Z" fill="white"/>
<path d="M78.5088 37.9663L78.3266 37.0885C77.6675 37.7841 76.8758 38.1319 75.9483 38.1319C75.2163 38.1319 74.6201 37.9431 74.1597 37.5621C73.6993 37.1812 73.4707 36.6811 73.4707 36.0583C73.4707 35.2501 73.7688 34.6241 74.3684 34.1736C74.9679 33.7231 75.8324 33.4979 76.9619 33.4979C77.3693 33.4979 77.7768 33.5178 78.1875 33.5542V33.2892C78.1875 32.8818 78.0716 32.577 77.8397 32.3783C77.6078 32.1796 77.2402 32.0802 76.74 32.0802C76.2398 32.0802 75.7927 32.163 75.3687 32.322C74.948 32.4843 74.4909 32.746 73.9974 33.107V31.4641C74.4247 31.1395 74.8685 30.9043 75.3322 30.7553C75.796 30.6062 76.3061 30.5333 76.8626 30.5333C77.8927 30.5333 78.6777 30.7553 79.221 31.1958C79.7642 31.6363 80.0358 32.2789 80.0358 33.1236V36.3498L80.3405 37.9629H78.5055L78.5088 37.9663ZM76.2266 36.7274C76.5777 36.7274 76.9122 36.6546 77.2269 36.5121C77.5416 36.3697 77.8629 36.1378 78.1875 35.8232V34.8361H76.8526C76.316 34.8361 75.9218 34.9156 75.6767 35.0713C75.4316 35.2302 75.3091 35.5118 75.3091 35.9192C75.3091 36.4558 75.6138 36.7274 76.2266 36.7274Z" fill="white"/>
<path d="M80.9834 27.476H82.8184V37.9662H80.9834V27.476Z" fill="white"/>
<path d="M89.1216 29.8973V32.3186H93.2951V33.8357H89.1216V36.3531H93.5999V37.9662H87.2832V28.2842H93.5999V29.8973H89.1216Z" fill="white"/>
<path d="M95.7429 37.9331C95.2792 37.7973 94.842 37.6052 94.4346 37.3568V35.6178C94.8784 35.9523 95.3024 36.1974 95.6999 36.3564C96.0974 36.5154 96.5313 36.5916 96.995 36.5916C97.4587 36.5916 97.8165 36.532 98.045 36.4094C98.2736 36.2902 98.3862 36.1047 98.3862 35.8529C98.3862 35.6012 98.2769 35.4323 98.0583 35.3163C97.8397 35.2004 97.4952 35.0878 97.0215 34.9752C96.5015 34.846 96.0808 34.7135 95.7562 34.5777C95.4316 34.4419 95.15 34.2233 94.9149 33.9152C94.6797 33.6105 94.5604 33.1964 94.5604 32.6764C94.5604 32.0272 94.8254 31.5071 95.362 31.1196C95.8953 30.7287 96.6108 30.5366 97.5118 30.5366C97.949 30.5366 98.3498 30.5863 98.7208 30.6824C99.0917 30.7784 99.4727 30.9407 99.8602 31.1627V32.8586C99.4627 32.5803 99.0917 32.3816 98.7473 32.259C98.4028 32.1398 98.0384 32.0769 97.6475 32.0769C97.2203 32.0769 96.8923 32.1299 96.6605 32.2359C96.4286 32.3419 96.3127 32.4975 96.3127 32.7029C96.3127 32.9083 96.412 33.0573 96.6108 33.1567C96.8095 33.2528 97.1275 33.3521 97.5647 33.4548C98.0848 33.5674 98.5187 33.6933 98.8665 33.839C99.2143 33.9815 99.5124 34.2133 99.7641 34.5346C100.016 34.8559 100.138 35.2965 100.138 35.8629C100.138 36.3001 100.013 36.691 99.7641 37.0388C99.5157 37.3866 99.1613 37.6549 98.7075 37.847C98.2537 38.0358 97.737 38.1319 97.1639 38.1319C96.6803 38.1319 96.21 38.0656 95.7463 37.9298L95.7429 37.9331Z" fill="white"/>
<path d="M103.09 30.7055H104.759V32.0702H103.09V35.5746C103.09 36.2802 103.358 36.6313 103.898 36.6313C104.15 36.6313 104.441 36.5419 104.776 36.3663V37.8834C104.544 37.9662 104.329 38.0291 104.13 38.0722C103.931 38.1152 103.706 38.1351 103.454 38.1351C101.99 38.1351 101.255 37.2805 101.255 35.5746V32.0702H100.198V30.7055H101.255V28.7578L103.09 28.1185V30.7055Z" fill="white"/>
<path d="M110.115 37.9663L109.933 37.0885C109.274 37.7841 108.482 38.1319 107.555 38.1319C106.823 38.1319 106.227 37.9431 105.766 37.5621C105.306 37.1812 105.077 36.6811 105.077 36.0583C105.077 35.2501 105.375 34.6241 105.975 34.1736C106.574 33.7231 107.439 33.4979 108.568 33.4979C108.976 33.4979 109.383 33.5178 109.794 33.5542V33.2892C109.794 32.8818 109.678 32.577 109.446 32.3783C109.214 32.1796 108.847 32.0802 108.346 32.0802C107.846 32.0802 107.399 32.163 106.975 32.322C106.554 32.4843 106.097 32.746 105.604 33.107V31.4641C106.031 31.1395 106.475 30.9043 106.939 30.7553C107.402 30.6062 107.913 30.5333 108.469 30.5333C109.499 30.5333 110.284 30.7553 110.827 31.1958C111.371 31.6363 111.642 32.2789 111.642 33.1236V36.3498L111.947 37.9629H110.112L110.115 37.9663ZM107.833 36.7274C108.184 36.7274 108.519 36.6546 108.833 36.5121C109.148 36.3697 109.469 36.1378 109.794 35.8232V34.8361H108.459C107.922 34.8361 107.528 34.9156 107.283 35.0713C107.038 35.2302 106.916 35.5118 106.916 35.9192C106.916 36.4558 107.22 36.7274 107.833 36.7274Z" fill="white"/>
<path d="M114.832 30.7055H116.502V32.0702H114.832V35.5746C114.832 36.2802 115.1 36.6313 115.64 36.6313C115.892 36.6313 116.184 36.5419 116.518 36.3663V37.8834C116.286 37.9662 116.071 38.0291 115.872 38.0722C115.673 38.1152 115.448 38.1351 115.196 38.1351C113.732 38.1351 112.997 37.2805 112.997 35.5746V32.0702H111.94V30.7055H112.997V28.7578L114.832 28.1185V30.7055Z" fill="white"/>
<path d="M123.832 34.8923H118.781C118.854 35.4488 119.063 35.876 119.4 36.1708C119.738 36.469 120.192 36.6147 120.755 36.6147C121.173 36.6147 121.623 36.5385 122.113 36.3862C122.6 36.2338 123.051 36.0218 123.468 35.7535H123.524V37.2407C123.153 37.5289 122.729 37.7475 122.252 37.8999C121.775 38.0523 121.272 38.1285 120.742 38.1285C119.98 38.1285 119.318 37.9761 118.751 37.668C118.185 37.3633 117.751 36.9228 117.443 36.3464C117.138 35.7701 116.982 35.0976 116.982 34.3292C116.982 33.5607 117.128 32.9148 117.42 32.3385C117.711 31.7621 118.122 31.3182 118.652 31.0036C119.182 30.6889 119.791 30.5299 120.487 30.5299C121.182 30.5299 121.756 30.6823 122.259 30.9903C122.766 31.2951 123.15 31.7356 123.422 32.312C123.69 32.8883 123.826 33.5607 123.826 34.3292V34.8857L123.832 34.8923ZM119.4 32.4444C119.109 32.7326 118.91 33.1301 118.808 33.6402H121.938C121.865 33.1102 121.706 32.7094 121.464 32.4312C121.222 32.153 120.898 32.0138 120.49 32.0138C120.053 32.0138 119.689 32.1563 119.397 32.4444H119.4Z" fill="white"/>
<path d="M60.0957 50.7718C59.3305 50.3644 58.7476 49.7814 58.3435 49.0262C57.9394 48.271 57.7373 47.3866 57.7373 46.3763C57.7373 45.3661 57.9427 44.4817 58.3501 43.7264C58.7575 42.9712 59.3504 42.3882 60.1321 41.9808C60.9139 41.5734 61.8446 41.368 62.9278 41.368C63.3816 41.368 63.8287 41.4111 64.2693 41.5005C64.7098 41.59 65.1073 41.7225 65.4584 41.898V43.5939H65.4021C65.051 43.3886 64.6668 43.2362 64.256 43.1335C63.842 43.0308 63.4511 42.9812 63.0801 42.9812C62.0235 42.9812 61.1888 43.2726 60.5826 43.8589C59.9765 44.4419 59.6717 45.2832 59.6717 46.3763C59.6717 47.4694 59.9698 48.2975 60.5627 48.8805C61.1557 49.4634 61.9672 49.7582 62.9973 49.7582C63.3948 49.7582 63.8022 49.6953 64.2163 49.5694C64.6303 49.4436 65.0245 49.2647 65.4054 49.0328H65.4617V50.7453C64.7198 51.1726 63.8486 51.3846 62.845 51.3846C61.7784 51.3846 60.8642 51.1792 60.099 50.7718H60.0957Z" fill="white"/>
<path d="M68.2273 50.9175C67.6708 50.6061 67.2402 50.1656 66.9388 49.5893C66.6373 49.0129 66.4883 48.3471 66.4883 47.5853C66.4883 46.8234 66.6373 46.1577 66.9388 45.5813C67.2402 45.005 67.6708 44.5644 68.2273 44.2531C68.7837 43.9417 69.4297 43.786 70.1617 43.786C70.8937 43.786 71.5396 43.9417 72.0961 44.2531C72.6526 44.5644 73.0832 45.0083 73.3846 45.5813C73.686 46.1577 73.8351 46.8234 73.8351 47.5853C73.8351 48.3471 73.6827 49.0129 73.3846 49.5893C73.0832 50.1656 72.6526 50.6061 72.0961 50.9175C71.5396 51.2289 70.8937 51.3846 70.1617 51.3846C69.4297 51.3846 68.7837 51.2289 68.2273 50.9175ZM71.4403 49.2746C71.745 48.8804 71.9007 48.3173 71.9007 47.5853C71.9007 46.8533 71.7483 46.2769 71.4403 45.8894C71.1355 45.4985 70.7082 45.3064 70.1617 45.3064C69.6151 45.3064 69.1879 45.5018 68.8831 45.8894C68.5784 46.2802 68.4227 46.8433 68.4227 47.5853C68.4227 48.3273 68.5751 48.8804 68.8831 49.2746C69.1879 49.6688 69.6151 49.8675 70.1617 49.8675C70.7082 49.8675 71.1355 49.6721 71.4403 49.2746Z" fill="white"/>
<path d="M80.6552 44.4352C81.1057 44.8658 81.3309 45.4356 81.3309 46.1378V51.2156H79.4959V47.1812C79.4959 46.5518 79.3998 46.098 79.211 45.8231C79.0222 45.5482 78.7075 45.4124 78.2736 45.4124C77.79 45.4124 77.2799 45.6807 76.7433 46.2206V51.2156H74.9083V45.5681L74.6035 43.9549H76.2862L76.5512 44.8857C76.9487 44.4949 77.3362 44.2166 77.7072 44.0444C78.0782 43.8721 78.4723 43.786 78.8897 43.786C79.6217 43.786 80.2146 44.0013 80.6618 44.4319L80.6552 44.4352Z" fill="white"/>
<path d="M83.5574 51.1825C83.0937 51.0467 82.6564 50.8546 82.249 50.6061V48.8672C82.6929 49.2017 83.1169 49.4468 83.5143 49.6058C83.9118 49.7648 84.3457 49.841 84.8095 49.841C85.2732 49.841 85.6309 49.7814 85.8595 49.6588C86.088 49.5396 86.2007 49.3541 86.2007 49.1023C86.2007 48.8506 86.0914 48.6817 85.8727 48.5657C85.6541 48.4498 85.3096 48.3372 84.836 48.2246C84.3159 48.0954 83.8953 47.9629 83.5707 47.8271C83.246 47.6913 82.9645 47.4727 82.7293 47.1646C82.4941 46.8599 82.3749 46.4458 82.3749 45.9258C82.3749 45.2766 82.6399 44.7565 83.1765 44.369C83.7098 43.9781 84.4252 43.786 85.3262 43.786C85.7634 43.786 86.1642 43.8357 86.5352 43.9318C86.9062 44.0278 87.2871 44.1901 87.6747 44.412V46.108C87.2772 45.8297 86.9062 45.631 86.5617 45.5084C86.2172 45.3892 85.8529 45.3263 85.462 45.3263C85.0347 45.3263 84.7068 45.3793 84.4749 45.4853C84.2431 45.5912 84.1271 45.7469 84.1271 45.9523C84.1271 46.1577 84.2265 46.3067 84.4252 46.4061C84.624 46.5021 84.942 46.6015 85.3792 46.7042C85.8992 46.8168 86.3332 46.9427 86.681 47.0884C87.0288 47.2309 87.3269 47.4627 87.5786 47.784C87.8303 48.1053 87.9529 48.5459 87.9529 49.1123C87.9529 49.5495 87.827 49.9404 87.5786 50.2882C87.3302 50.636 86.9758 50.9043 86.522 51.0964C86.0682 51.2852 85.5514 51.3812 84.9784 51.3812C84.4948 51.3812 84.0244 51.315 83.5607 51.1792L83.5574 51.1825Z" fill="white"/>
<path d="M93.8654 51.2157L93.6004 50.2683C93.1267 50.6857 92.7127 50.9772 92.355 51.1362C91.9972 51.2985 91.5931 51.3813 91.1393 51.3813C90.6855 51.3813 90.3079 51.2786 89.9502 51.0765C89.5925 50.8712 89.3142 50.5929 89.1155 50.2352C88.9168 49.8775 88.8174 49.4767 88.8174 49.0328V43.955H90.6524V47.9894C90.6524 48.5724 90.7452 49.0129 90.9307 49.311C91.1161 49.6092 91.3845 49.7549 91.7389 49.7549C92.037 49.7549 92.3152 49.6887 92.5736 49.5595C92.832 49.4303 93.1102 49.2216 93.4083 48.9334V43.9517H95.2434V49.5992L95.5481 51.2123H93.8654V51.2157Z" fill="white"/>
<path d="M96.6211 40.7253H98.4561V51.2156H96.6211V40.7253Z" fill="white"/>
<path d="M101.809 43.955H103.478V45.3197H101.809V48.8242C101.809 49.5297 102.077 49.8808 102.617 49.8808C102.869 49.8808 103.16 49.7914 103.495 49.6158V51.1329C103.263 51.2157 103.047 51.2786 102.849 51.3217C102.65 51.3647 102.425 51.3846 102.173 51.3846C100.709 51.3846 99.9736 50.53 99.9736 48.8242V45.3197H98.917V43.955H99.9736V42.0073L101.809 41.368V43.955Z" fill="white"/>
<path d="M108.834 51.2156L108.652 50.3379C107.993 51.0335 107.201 51.3813 106.274 51.3813C105.542 51.3813 104.945 51.1925 104.485 50.8115C104.024 50.4306 103.796 49.9304 103.796 49.3077C103.796 48.4995 104.094 47.8735 104.694 47.423C105.293 46.9725 106.158 46.7473 107.287 46.7473C107.695 46.7473 108.102 46.7672 108.513 46.8036V46.5386C108.513 46.1312 108.397 45.8264 108.165 45.6277C107.933 45.429 107.565 45.3296 107.065 45.3296C106.565 45.3296 106.118 45.4124 105.694 45.5714C105.273 45.7337 104.816 45.9954 104.323 46.3564V44.7135C104.75 44.3889 105.194 44.1537 105.657 44.0046C106.121 43.8556 106.631 43.7827 107.188 43.7827C108.218 43.7827 109.003 44.0046 109.546 44.4452C110.089 44.8857 110.361 45.5283 110.361 46.373V49.5992L110.666 51.2123H108.831L108.834 51.2156ZM106.552 49.9768C106.903 49.9768 107.237 49.9039 107.552 49.7615C107.867 49.6191 108.188 49.3872 108.513 49.0725V48.0855H107.178C106.641 48.0855 106.247 48.165 106.002 48.3206C105.757 48.4796 105.634 48.7612 105.634 49.1686C105.634 49.7052 105.939 49.9768 106.552 49.9768Z" fill="white"/>
<path d="M117.273 44.4352C117.724 44.8658 117.949 45.4356 117.949 46.1378V51.2156H116.114V47.1812C116.114 46.5518 116.018 46.098 115.829 45.8231C115.64 45.5482 115.326 45.4124 114.892 45.4124C114.408 45.4124 113.898 45.6807 113.361 46.2206V51.2156H111.526V45.5681L111.222 43.9549H112.904L113.169 44.8857C113.567 44.4949 113.954 44.2166 114.325 44.0444C114.696 43.8721 115.091 43.786 115.508 43.786C116.24 43.786 116.833 44.0013 117.28 44.4319L117.273 44.4352Z" fill="white"/>
<path d="M121.51 43.955H123.179V45.3197H121.51V48.8242C121.51 49.5297 121.778 49.8808 122.318 49.8808C122.57 49.8808 122.861 49.7914 123.196 49.6158V51.1329C122.964 51.2157 122.749 51.2786 122.55 51.3217C122.351 51.3647 122.126 51.3846 121.874 51.3846C120.41 51.3846 119.675 50.53 119.675 48.8242V45.3197H118.618V43.955H119.675V42.0073L121.51 41.368V43.955Z" fill="white"/>
<path d="M57.416 12.269L79.5293 1.95098L101.338 12.269L79.3769 0L57.416 12.269Z" fill="#00BF63"/>
<path d="M58.7981 55.8033H57.748V55.3628H60.2853V55.8033H59.2353V58.8408H58.7948V55.8033H58.7981Z" fill="white"/>
<path d="M62.7261 56.4028C62.852 56.5552 62.9149 56.7639 62.9149 57.0355V58.844H62.4744V57.0951C62.4744 56.9295 62.4379 56.8003 62.3684 56.7076C62.2988 56.6148 62.1928 56.5718 62.0504 56.5718C61.8881 56.5718 61.749 56.5983 61.6397 56.6512C61.527 56.7042 61.4045 56.7904 61.2687 56.9096V58.844H60.8281V55.0779H61.2687V56.5618C61.4144 56.4293 61.5535 56.33 61.686 56.2703C61.8185 56.2074 61.9775 56.1776 62.1696 56.1776C62.4147 56.1776 62.6035 56.2538 62.7294 56.4061L62.7261 56.4028Z" fill="white"/>
<path d="M65.7902 57.6814H63.9419C63.9684 57.9365 64.0545 58.1419 64.2002 58.2942C64.346 58.4466 64.5414 58.5228 64.7931 58.5228C64.9422 58.5228 65.0879 58.493 65.2304 58.43C65.3728 58.3671 65.5152 58.2777 65.661 58.1584H65.6808V58.599C65.5351 58.705 65.3894 58.7845 65.2469 58.8308C65.1045 58.8805 64.9488 58.9037 64.7865 58.9037C64.5215 58.9037 64.2897 58.8441 64.0909 58.7281C63.8955 58.6122 63.7431 58.4499 63.6404 58.2412C63.5344 58.0325 63.4814 57.7941 63.4814 57.5258C63.4814 57.2575 63.5278 57.0388 63.6239 56.8335C63.7199 56.6281 63.8557 56.4691 64.0313 56.3499C64.2069 56.2339 64.4155 56.1743 64.6507 56.1743C64.8859 56.1743 65.0946 56.2339 65.2668 56.3532C65.439 56.4724 65.5682 56.6347 65.6577 56.8401C65.7471 57.0455 65.7902 57.2806 65.7902 57.539V57.6847V57.6814ZM64.1605 56.7639C64.0379 56.913 63.965 57.1084 63.9419 57.3436H65.3364C65.3132 57.1018 65.2469 56.9063 65.1343 56.7606C65.0217 56.6149 64.8627 56.542 64.6573 56.542C64.452 56.542 64.2864 56.6182 64.1638 56.7672L64.1605 56.7639Z" fill="white"/>
<path d="M70.7986 56.4028C70.9245 56.5552 70.9874 56.7639 70.9874 57.0355V58.844H70.5468V57.0951C70.5468 56.9295 70.5104 56.8003 70.4409 56.7076C70.3713 56.6148 70.2653 56.5718 70.1196 56.5718C69.9738 56.5718 69.8513 56.5983 69.7486 56.6513C69.6492 56.7043 69.5333 56.7904 69.4041 56.9096C69.4041 56.9361 69.4107 56.9792 69.4107 57.0355V58.844H68.9702V57.0951C68.9702 56.9295 68.9337 56.8003 68.8642 56.7076C68.7946 56.6148 68.6886 56.5718 68.5462 56.5718C68.4038 56.5718 68.2779 56.5983 68.1752 56.648C68.0758 56.7009 67.9632 56.7871 67.834 56.9063V58.844H67.3935V56.8169L67.2842 56.2372H67.7247L67.7943 56.5983C67.9433 56.4492 68.0791 56.3399 68.2017 56.277C68.3243 56.2107 68.4766 56.1809 68.6588 56.1809C68.831 56.1809 68.9768 56.2207 69.0894 56.2968C69.2053 56.373 69.2882 56.4823 69.3411 56.6281C69.5001 56.4691 69.6426 56.3531 69.7651 56.2869C69.8877 56.2173 70.0434 56.1842 70.2289 56.1842C70.474 56.1842 70.6628 56.2604 70.7887 56.4128L70.7986 56.4028Z" fill="white"/>
<path d="M71.915 58.5294C71.7031 58.281 71.5938 57.9497 71.5938 57.539C71.5938 57.1283 71.6997 56.7937 71.915 56.5486C72.127 56.3002 72.4251 56.1776 72.8028 56.1776C73.1804 56.1776 73.4785 56.3035 73.6905 56.5486C73.9025 56.797 74.0118 57.1283 74.0118 57.539C74.0118 57.9497 73.9058 58.281 73.6905 58.5294C73.4752 58.7778 73.1804 58.9004 72.8028 58.9004C72.4251 58.9004 72.127 58.7778 71.915 58.5294ZM73.3526 58.2511C73.4752 58.0723 73.5381 57.8338 73.5381 57.5357C73.5381 57.2376 73.4752 57.0024 73.3526 56.8202C73.2301 56.638 73.0479 56.5519 72.8028 56.5519C72.5576 56.5519 72.3788 56.6413 72.2562 56.8202C72.1337 56.9991 72.074 57.2376 72.074 57.5357C72.074 57.8338 72.1337 58.069 72.2562 58.2511C72.3788 58.4333 72.561 58.5194 72.8028 58.5194C73.0446 58.5194 73.2301 58.43 73.3526 58.2511Z" fill="white"/>
<path d="M76.4033 58.8407L76.337 58.4962C76.2178 58.6287 76.082 58.7281 75.9329 58.7977C75.7838 58.8639 75.6149 58.897 75.4294 58.897C75.1048 58.897 74.8597 58.7712 74.6841 58.5227C74.5119 58.2743 74.4258 57.953 74.4258 57.5621C74.4258 57.2972 74.4722 57.0587 74.5682 56.8467C74.6643 56.638 74.8001 56.4724 74.9789 56.3531C75.1578 56.2339 75.3698 56.1743 75.6149 56.1743C75.7342 56.1743 75.8468 56.1875 75.9561 56.2173C76.0621 56.2471 76.1747 56.2869 76.2973 56.3399V55.0779H76.7378V58.2644L76.8471 58.844H76.4066L76.4033 58.8407ZM75.9263 58.3935C76.0521 58.3273 76.1747 58.2312 76.2939 58.1054V56.6711C76.082 56.5983 75.87 56.5618 75.658 56.5618C75.4162 56.5618 75.2274 56.6546 75.0949 56.8401C74.9624 57.0255 74.8961 57.2607 74.8961 57.5522C74.8961 57.8437 74.9425 58.0557 75.0386 58.2279C75.1346 58.4035 75.287 58.4896 75.4957 58.4896C75.6547 58.4896 75.7971 58.4565 75.923 58.3935H75.9263Z" fill="white"/>
<path d="M79.5763 57.6814H77.728C77.7545 57.9365 77.8406 58.1419 77.9864 58.2942C78.1321 58.4466 78.3275 58.5228 78.5793 58.5228C78.7283 58.5228 78.8741 58.493 79.0165 58.43C79.1589 58.3671 79.3014 58.2777 79.4471 58.1584H79.467V58.599C79.3212 58.705 79.1755 58.7845 79.0331 58.8308C78.8906 58.8805 78.735 58.9037 78.5726 58.9037C78.3077 58.9037 78.0758 58.8441 77.8771 58.7281C77.6816 58.6122 77.5293 58.4499 77.4266 58.2412C77.3206 58.0325 77.2676 57.7941 77.2676 57.5258C77.2676 57.2575 77.3139 57.0388 77.41 56.8335C77.5061 56.6281 77.6419 56.4691 77.8174 56.3499C77.993 56.2339 78.2017 56.1743 78.4368 56.1743C78.672 56.1743 78.8807 56.2339 79.0529 56.3532C79.2252 56.4724 79.3544 56.6347 79.4438 56.8401C79.5332 57.0455 79.5763 57.2806 79.5763 57.539V57.6847V57.6814ZM77.9466 56.7639C77.8241 56.913 77.7512 57.1084 77.728 57.3436H79.1225C79.0993 57.1018 79.0331 56.9063 78.9204 56.7606C78.8078 56.6149 78.6488 56.542 78.4435 56.542C78.2381 56.542 78.0725 56.6182 77.9499 56.7672L77.9466 56.7639Z" fill="white"/>
<path d="M81.3854 56.1743V56.6579H81.3092C81.1535 56.6579 81.0111 56.6844 80.8886 56.744C80.766 56.8037 80.66 56.8832 80.5772 56.9892V58.8408H80.1366V56.8136L80.0273 56.2339H80.4679L80.5573 56.6977C80.6931 56.4989 80.8091 56.3598 80.9051 56.2869C81.0012 56.2108 81.1105 56.1743 81.233 56.1743H81.3887H81.3854Z" fill="white"/>
<path d="M83.7866 56.4029C83.9125 56.5552 83.9754 56.7639 83.9754 57.0355V58.8441H83.5348V57.0951C83.5348 56.9295 83.4984 56.8003 83.4288 56.7076C83.3593 56.6148 83.2533 56.5718 83.1109 56.5718C82.9486 56.5718 82.8094 56.5983 82.7001 56.6513C82.5875 56.7043 82.465 56.7904 82.3291 56.9096V58.8441H81.8886V56.8169L81.7793 56.2372H82.2198L82.2894 56.6016C82.4451 56.4525 82.5908 56.3432 82.7266 56.277C82.8624 56.2107 83.0281 56.1776 83.2301 56.1776C83.4752 56.1776 83.664 56.2538 83.7899 56.4062L83.7866 56.4029Z" fill="white"/>
<path d="M89.3976 56.2339L88.5795 58.8407H88.0098L87.397 56.8367L86.7941 58.8407H86.2244L85.4062 56.2339H85.8567L86.5358 58.4167L87.185 56.2339H87.6355L88.2946 58.4167L88.9737 56.2339H89.4043H89.3976Z" fill="white"/>
<path d="M91.3285 58.8407L91.2589 58.4664C91.1298 58.6089 90.9873 58.7182 90.8383 58.7911C90.6859 58.8639 90.517 58.9004 90.3249 58.9004C90.0897 58.9004 89.8976 58.8341 89.7518 58.6983C89.6061 58.5625 89.5332 58.3836 89.5332 58.1617C89.5332 57.8702 89.6491 57.6582 89.8843 57.5224C90.1162 57.3866 90.4176 57.3171 90.782 57.3171C90.9145 57.3171 91.0602 57.327 91.2225 57.3436V57.1647C91.2225 56.9858 91.1728 56.8401 91.0768 56.7341C90.9774 56.6248 90.8515 56.5718 90.6958 56.5718C90.5104 56.5718 90.3414 56.5983 90.1891 56.648C90.0367 56.6977 89.881 56.7771 89.722 56.8831V56.4592C89.8777 56.3565 90.04 56.2836 90.2023 56.2405C90.3646 56.1975 90.5534 56.1776 90.7621 56.1776C91.0271 56.1776 91.2457 56.2637 91.4146 56.4327C91.5836 56.6016 91.6664 56.8268 91.6664 57.1084V58.2677L91.7757 58.8474H91.3351L91.3285 58.8407ZM90.8449 58.43C90.9708 58.3638 91.0966 58.2677 91.2192 58.1385V57.6483H90.7588C90.2553 57.6483 90.0036 57.8106 90.0036 58.1319C90.0036 58.2511 90.0433 58.3472 90.1195 58.4201C90.1957 58.4929 90.295 58.5261 90.4143 58.5261C90.5733 58.5261 90.7157 58.4929 90.8449 58.4267V58.43Z" fill="white"/>
<path d="M94.4258 56.2339L92.9319 60H92.4814L92.9319 58.8705L91.8984 56.2339H92.3489L93.1638 58.3704L93.9587 56.2339H94.4291H94.4258Z" fill="white"/>
<path d="M96.3436 56.234H97.0624V56.6149H96.3436V58.1088C96.3436 58.2313 96.3701 58.3307 96.4265 58.4069C96.4828 58.4831 96.5623 58.5195 96.6683 58.5195C96.7411 58.5195 96.8074 58.5129 96.867 58.4963C96.9266 58.4797 96.9896 58.4566 97.0657 58.4234V58.8143C96.9896 58.8507 96.9167 58.8739 96.8471 58.8872C96.7776 58.9004 96.6914 58.9037 96.5921 58.9037C96.3801 58.9037 96.2112 58.8342 96.0886 58.6984C95.966 58.5626 95.9064 58.3804 95.9064 58.1551V56.6182H95.4062V56.2373H95.9064V55.5384L96.347 55.3098V56.2373L96.3436 56.234Z" fill="white"/>
<path d="M97.6484 58.5294C97.4365 58.281 97.3271 57.9497 97.3271 57.539C97.3271 57.1283 97.4331 56.7937 97.6484 56.5486C97.8604 56.3002 98.1586 56.1776 98.5362 56.1776C98.9138 56.1776 99.2119 56.3035 99.4239 56.5486C99.6359 56.797 99.7452 57.1283 99.7452 57.539C99.7452 57.9497 99.6392 58.281 99.4239 58.5294C99.2086 58.7778 98.9138 58.9004 98.5362 58.9004C98.1586 58.9004 97.8604 58.7778 97.6484 58.5294ZM99.086 58.2511C99.2086 58.0723 99.2715 57.8338 99.2715 57.5357C99.2715 57.2376 99.2086 57.0024 99.086 56.8202C98.9635 56.638 98.7813 56.5519 98.5362 56.5519C98.2911 56.5519 98.1122 56.6413 97.9896 56.8202C97.8671 56.9991 97.8074 57.2376 97.8074 57.5357C97.8074 57.8338 97.8671 58.069 97.9896 58.2511C98.1122 58.4333 98.2944 58.5194 98.5362 58.5194C98.778 58.5194 98.9635 58.43 99.086 58.2511Z" fill="white"/>
<path d="M102.664 56.1743V56.6579H102.588C102.432 56.6579 102.289 56.6844 102.167 56.744C102.044 56.8037 101.938 56.8832 101.856 56.9892V58.8408H101.415V56.8136L101.306 56.2339H101.746L101.836 56.6977C101.971 56.4989 102.087 56.3598 102.183 56.2869C102.279 56.2108 102.389 56.1743 102.511 56.1743H102.667H102.664Z" fill="white"/>
<path d="M105.171 57.6814H103.323C103.349 57.9365 103.435 58.1419 103.581 58.2942C103.727 58.4466 103.922 58.5228 104.174 58.5228C104.323 58.5228 104.469 58.493 104.611 58.43C104.754 58.3671 104.896 58.2777 105.042 58.1584H105.062V58.599C104.916 58.705 104.77 58.7845 104.628 58.8308C104.485 58.8805 104.33 58.9037 104.167 58.9037C103.902 58.9037 103.671 58.8441 103.472 58.7281C103.276 58.6122 103.124 58.4499 103.021 58.2412C102.915 58.0325 102.862 57.7941 102.862 57.5258C102.862 57.2575 102.909 57.0388 103.005 56.8335C103.101 56.6281 103.237 56.4691 103.412 56.3499C103.588 56.2339 103.796 56.1743 104.032 56.1743C104.267 56.1743 104.475 56.2339 104.648 56.3532C104.82 56.4724 104.949 56.6347 105.039 56.8401C105.128 57.0455 105.171 57.2806 105.171 57.539V57.6847V57.6814ZM103.541 56.7639C103.419 56.913 103.346 57.1084 103.323 57.3436H104.717C104.694 57.1018 104.628 56.9063 104.515 56.7606C104.403 56.6149 104.244 56.542 104.038 56.542C103.833 56.542 103.667 56.6182 103.545 56.7672L103.541 56.7639Z" fill="white"/>
<path d="M107.294 58.8407L107.225 58.4664C107.096 58.6089 106.953 58.7182 106.804 58.7911C106.652 58.8639 106.483 58.9004 106.291 58.9004C106.056 58.9004 105.863 58.8341 105.718 58.6983C105.572 58.5625 105.499 58.3836 105.499 58.1617C105.499 57.8702 105.615 57.6582 105.85 57.5224C106.082 57.3866 106.383 57.3171 106.748 57.3171C106.88 57.3171 107.026 57.327 107.188 57.3436V57.1647C107.188 56.9858 107.139 56.8401 107.043 56.7341C106.943 56.6248 106.817 56.5718 106.662 56.5718C106.476 56.5718 106.307 56.5983 106.155 56.648C106.003 56.6977 105.847 56.7771 105.688 56.8831V56.4592C105.844 56.3565 106.006 56.2836 106.168 56.2405C106.33 56.1975 106.519 56.1776 106.728 56.1776C106.993 56.1776 107.212 56.2637 107.38 56.4327C107.549 56.6016 107.632 56.8268 107.632 57.1084V58.2677L107.741 58.8474H107.301L107.294 58.8407ZM106.811 58.43C106.937 58.3638 107.062 58.2677 107.185 58.1385V57.6483H106.725C106.221 57.6483 105.969 57.8106 105.969 58.1319C105.969 58.2511 106.009 58.3472 106.085 58.4201C106.161 58.4929 106.261 58.5261 106.38 58.5261C106.539 58.5261 106.682 58.4929 106.811 58.4267V58.43Z" fill="white"/>
<path d="M108.208 55.0746H108.649V58.8407H108.208V55.0746Z" fill="white"/>
<path d="M112.505 57.6814H110.657C110.683 57.9365 110.769 58.1419 110.915 58.2942C111.061 58.4466 111.256 58.5228 111.508 58.5228C111.657 58.5228 111.803 58.493 111.945 58.43C112.088 58.3671 112.23 58.2777 112.376 58.1584H112.396V58.599C112.25 58.705 112.104 58.7845 111.962 58.8308C111.819 58.8805 111.664 58.9037 111.501 58.9037C111.236 58.9037 111.005 58.8441 110.806 58.7281C110.61 58.6122 110.458 58.4499 110.355 58.2412C110.249 58.0325 110.196 57.7941 110.196 57.5258C110.196 57.2575 110.243 57.0388 110.339 56.8335C110.435 56.6281 110.571 56.4691 110.746 56.3499C110.922 56.2339 111.13 56.1743 111.366 56.1743C111.601 56.1743 111.809 56.2339 111.982 56.3532C112.154 56.4724 112.283 56.6347 112.373 56.8401C112.462 57.0455 112.505 57.2806 112.505 57.539V57.6847V57.6814ZM110.875 56.7639C110.753 56.913 110.68 57.1084 110.657 57.3436H112.051C112.028 57.1018 111.962 56.9063 111.849 56.7606C111.737 56.6149 111.578 56.542 111.372 56.542C111.167 56.542 111.001 56.6182 110.879 56.7672L110.875 56.7639Z" fill="white"/>
<path d="M113.23 58.8275C113.075 58.7778 112.929 58.7116 112.793 58.6221V58.1617C113.098 58.3936 113.396 58.5128 113.691 58.5128C113.863 58.5128 114.005 58.4764 114.111 58.4068C114.217 58.334 114.27 58.2379 114.27 58.1187C114.27 58.0359 114.244 57.9663 114.194 57.9133C114.144 57.8603 114.078 57.8172 114.002 57.7874C113.926 57.7576 113.816 57.7212 113.671 57.6781C113.495 57.6284 113.349 57.5788 113.234 57.5291C113.118 57.4794 113.022 57.4098 112.942 57.3138C112.863 57.2177 112.823 57.0952 112.823 56.9428C112.823 56.7109 112.912 56.5221 113.088 56.383C113.263 56.2439 113.495 56.1743 113.783 56.1743C114.072 56.1743 114.33 56.2505 114.562 56.3996V56.8434C114.433 56.744 114.307 56.6712 114.184 56.6281C114.062 56.5851 113.936 56.5619 113.803 56.5619C113.638 56.5619 113.505 56.5917 113.409 56.6513C113.313 56.7109 113.263 56.7937 113.263 56.8997C113.263 56.9759 113.29 57.0388 113.34 57.0885C113.393 57.1382 113.455 57.178 113.532 57.2078C113.608 57.2376 113.717 57.274 113.863 57.3171C114.042 57.3701 114.187 57.4198 114.303 57.4694C114.416 57.5191 114.512 57.592 114.595 57.6881C114.674 57.7874 114.714 57.9133 114.714 58.069C114.714 58.2247 114.671 58.3704 114.585 58.4963C114.499 58.6221 114.38 58.7182 114.224 58.7878C114.068 58.8573 113.896 58.8938 113.704 58.8938C113.545 58.8938 113.386 58.8706 113.234 58.8209L113.23 58.8275Z" fill="white"/>
<path d="M115.725 56.234H116.443V56.6149H115.725V58.1088C115.725 58.2313 115.751 58.3307 115.807 58.4069C115.864 58.4831 115.943 58.5195 116.049 58.5195C116.122 58.5195 116.188 58.5129 116.248 58.4963C116.307 58.4797 116.37 58.4566 116.447 58.4234V58.8143C116.37 58.8507 116.298 58.8739 116.228 58.8872C116.158 58.9004 116.072 58.9037 115.973 58.9037C115.761 58.9037 115.592 58.8342 115.469 58.6984C115.347 58.5626 115.287 58.3804 115.287 58.1551V56.6182H114.787V56.2373H115.287V55.5384L115.728 55.3098V56.2373L115.725 56.234Z" fill="white"/>
<path d="M118.444 58.8407L118.374 58.4664C118.245 58.6089 118.103 58.7182 117.954 58.7911C117.801 58.8639 117.632 58.9004 117.44 58.9004C117.205 58.9004 117.013 58.8341 116.867 58.6983C116.721 58.5625 116.648 58.3836 116.648 58.1617C116.648 57.8702 116.764 57.6582 117 57.5224C117.231 57.3866 117.533 57.3171 117.897 57.3171C118.03 57.3171 118.175 57.327 118.338 57.3436V57.1647C118.338 56.9858 118.288 56.8401 118.192 56.7341C118.093 56.6248 117.967 56.5718 117.811 56.5718C117.626 56.5718 117.457 56.5983 117.304 56.648C117.152 56.6977 116.996 56.7771 116.837 56.8831V56.4592C116.993 56.3565 117.155 56.2836 117.318 56.2405C117.48 56.1975 117.669 56.1776 117.877 56.1776C118.142 56.1776 118.361 56.2637 118.53 56.4327C118.699 56.6016 118.782 56.8268 118.782 57.1084V58.2677L118.891 58.8474H118.45L118.444 58.8407ZM117.96 58.43C118.086 58.3638 118.212 58.2677 118.334 58.1385V57.6483H117.874C117.371 57.6483 117.119 57.8106 117.119 58.1319C117.119 58.2511 117.159 58.3472 117.235 58.4201C117.311 58.4929 117.41 58.5261 117.53 58.5261C117.689 58.5261 117.831 58.4929 117.96 58.4267V58.43Z" fill="white"/>
<path d="M119.941 56.234H120.66V56.6149H119.941V58.1088C119.941 58.2313 119.968 58.3307 120.024 58.4069C120.08 58.4831 120.16 58.5195 120.266 58.5195C120.339 58.5195 120.405 58.5129 120.465 58.4963C120.524 58.4797 120.587 58.4566 120.663 58.4234V58.8143C120.587 58.8507 120.514 58.8739 120.445 58.8872C120.375 58.9004 120.289 58.9037 120.19 58.9037C119.978 58.9037 119.809 58.8342 119.686 58.6984C119.564 58.5626 119.504 58.3804 119.504 58.1551V56.6182H119.004V56.2373H119.504V55.5384L119.945 55.3098V56.2373L119.941 56.234Z" fill="white"/>
<path d="M123.193 57.6814H121.345C121.372 57.9365 121.458 58.1419 121.604 58.2942C121.749 58.4466 121.945 58.5228 122.196 58.5228C122.346 58.5228 122.491 58.493 122.634 58.43C122.776 58.3671 122.919 58.2777 123.064 58.1584H123.084V58.599C122.938 58.705 122.793 58.7845 122.65 58.8308C122.508 58.8805 122.352 58.9037 122.19 58.9037C121.925 58.9037 121.693 58.8441 121.494 58.7281C121.299 58.6122 121.146 58.4499 121.044 58.2412C120.938 58.0325 120.885 57.7941 120.885 57.5258C120.885 57.2575 120.931 57.0388 121.027 56.8335C121.123 56.6281 121.259 56.4691 121.435 56.3499C121.61 56.2339 121.819 56.1743 122.054 56.1743C122.289 56.1743 122.498 56.2339 122.67 56.3532C122.842 56.4724 122.972 56.6347 123.061 56.8401C123.15 57.0455 123.193 57.2806 123.193 57.539V57.6847V57.6814ZM121.564 56.7639C121.441 56.913 121.368 57.1084 121.345 57.3436H122.74C122.716 57.1018 122.65 56.9063 122.538 56.7606C122.425 56.6149 122.266 56.542 122.061 56.542C121.855 56.542 121.69 56.6182 121.567 56.7672L121.564 56.7639Z" fill="white"/>
<path d="M54.7599 58.9003H31.7456L31.7787 42.1033L35.6741 42.0172L30.7221 36.8963V30.679H27.4395V33.8887L22.375 29.0361L9.36071 41.9576H13.425V58.9003H0V58.2378H12.7625V42.6201H7.75091L22.365 28.1086L26.7771 32.3352V30.0166H31.3846V36.628L37.2044 42.6466L32.4379 42.7493L32.4081 58.2378H54.7599V58.9003Z" fill="#00BF63"/>
</g>
<defs>
<clipPath id="clip0_126_3288">
<rect width="123.832" height="60" fill="white"/>
</clipPath>
</defs>
</svg>
