<svg width="374" height="182" viewBox="0 0 374 182" fill="none" xmlns="http://www.w3.org/2000/svg">
<g clip-path="url(#clip0_126_2840)">
<path d="M181.66 50.4701H173.34V45.3901H195.52V50.4701H187.2V74.6201H181.66V50.4701Z" fill="#222C3E"/>
<path d="M216.12 54.1497C217.48 55.4497 218.16 57.1697 218.16 59.2897V74.6197H212.62V62.4397C212.62 60.5397 212.33 59.1697 211.76 58.3397C211.19 57.5097 210.24 57.0997 208.93 57.0997C207.45 57.0997 205.91 57.9297 204.31 59.5797V74.6197H198.77V42.9497H204.31V54.9597C205.4 53.9797 206.46 53.2697 207.48 52.8397C208.5 52.4097 209.6 52.1897 210.78 52.1897C212.99 52.1897 214.78 52.8397 216.13 54.1397L216.12 54.1497Z" fill="#222C3E"/>
<path d="M242.14 65.3399H226.89C227.11 67.0199 227.74 68.3099 228.76 69.1999C229.78 70.0999 231.15 70.5399 232.85 70.5399C234.11 70.5399 235.47 70.3099 236.95 69.8499C238.42 69.3899 239.78 68.7499 241.04 67.9399H241.21V72.4299C240.09 73.2999 238.81 73.9599 237.37 74.4199C235.93 74.8799 234.41 75.1099 232.81 75.1099C230.51 75.1099 228.51 74.6499 226.8 73.7199C225.09 72.7999 223.78 71.4699 222.85 69.7299C221.93 67.9899 221.46 65.9599 221.46 63.6399C221.46 61.3199 221.9 59.3699 222.78 57.6299C223.66 55.8899 224.9 54.5499 226.5 53.5999C228.1 52.6499 229.94 52.1699 232.04 52.1699C234.14 52.1699 235.87 52.6299 237.39 53.5599C238.92 54.4799 240.08 55.8099 240.9 57.5499C241.71 59.2899 242.12 61.3199 242.12 63.6399V65.3199L242.14 65.3399ZM228.76 57.9499C227.88 58.8199 227.28 60.0199 226.97 61.5599H236.42C236.2 59.9599 235.72 58.7499 234.99 57.9099C234.26 57.0699 233.28 56.6499 232.05 56.6499C230.73 56.6499 229.63 57.0799 228.75 57.9499H228.76Z" fill="#222C3E"/>
<path d="M260.2 73.2801C258.04 72.0501 256.41 70.3001 255.29 68.0301C254.17 65.7601 253.61 63.0901 253.61 60.0101C253.61 56.9301 254.17 54.2601 255.29 51.9901C256.41 49.7201 258.05 47.9701 260.2 46.7401C262.36 45.5101 264.93 44.8901 267.93 44.8901C270.93 44.8901 273.5 45.5101 275.66 46.7401C277.82 47.9701 279.45 49.7201 280.57 51.9901C281.69 54.2601 282.25 56.9301 282.25 60.0101C282.25 63.0901 281.69 65.7601 280.57 68.0301C279.45 70.3001 277.81 72.0501 275.66 73.2801C273.5 74.5101 270.93 75.1301 267.93 75.1301C264.93 75.1301 262.36 74.5101 260.2 73.2801ZM274.14 67.4201C275.65 65.7001 276.41 63.2301 276.41 60.0101C276.41 56.7901 275.65 54.3201 274.14 52.6001C272.63 50.8801 270.56 50.0201 267.92 50.0201C265.28 50.0201 263.22 50.8801 261.7 52.6001C260.19 54.3201 259.43 56.7901 259.43 60.0101C259.43 63.2301 260.19 65.7001 261.7 67.4201C263.21 69.1401 265.28 70.0001 267.92 70.0001C270.56 70.0001 272.62 69.1401 274.14 67.4201Z" fill="#222C3E"/>
<path d="M303.82 54.1497C305.18 55.4497 305.86 57.1697 305.86 59.2897V74.6197H300.32V62.4397C300.32 60.5397 300.03 59.1697 299.46 58.3397C298.89 57.5097 297.94 57.0997 296.63 57.0997C295.15 57.0997 293.61 57.9297 292.01 59.5797V74.6197H286.47V42.9497H292.01V54.9597C293.1 53.9797 294.16 53.2697 295.18 52.8397C296.2 52.4097 297.3 52.1897 298.48 52.1897C300.69 52.1897 302.48 52.8397 303.83 54.1397L303.82 54.1497Z" fill="#222C3E"/>
<path d="M310.18 48.4499C309.51 47.8099 309.17 46.9699 309.17 45.9299C309.17 44.8899 309.51 44.0499 310.18 43.4099C310.85 42.7699 311.66 42.4399 312.62 42.4399C313.58 42.4399 314.38 42.7599 315.06 43.4099C315.73 44.0499 316.07 44.8899 316.07 45.9299C316.07 46.9699 315.73 47.8099 315.06 48.4499C314.39 49.0899 313.58 49.4199 312.62 49.4199C311.66 49.4199 310.86 49.0999 310.18 48.4499ZM315.39 52.6899V74.6099H309.85V52.7299L315.39 52.6899Z" fill="#222C3E"/>
<path d="M323.24 73.7199C321.56 72.7799 320.26 71.4499 319.35 69.7099C318.44 67.9699 317.99 65.9599 317.99 63.6599C317.99 61.3599 318.44 59.3499 319.35 57.6099C320.26 55.8699 321.56 54.5399 323.24 53.5999C324.92 52.6599 326.87 52.1899 329.08 52.1899C331.29 52.1899 333.24 52.6599 334.92 53.5999C336.6 54.5399 337.9 55.8799 338.81 57.6099C339.72 59.3499 340.17 61.3599 340.17 63.6599C340.17 65.9599 339.71 67.9699 338.81 69.7099C337.9 71.4499 336.6 72.7799 334.92 73.7199C333.24 74.6599 331.29 75.1299 329.08 75.1299C326.87 75.1299 324.92 74.6599 323.24 73.7199ZM332.94 68.7599C333.86 67.5699 334.33 65.8699 334.33 63.6599C334.33 61.4499 333.87 59.7099 332.94 58.5399C332.02 57.3599 330.73 56.7799 329.08 56.7799C327.43 56.7799 326.14 57.3699 325.22 58.5399C324.3 59.7199 323.83 61.4199 323.83 63.6599C323.83 65.8999 324.29 67.5699 325.22 68.7599C326.14 69.9499 327.43 70.5499 329.08 70.5499C330.73 70.5499 332.02 69.9599 332.94 68.7599Z" fill="#222C3E"/>
<path d="M192.03 114.62L186.07 103.49H180.86V114.62H175.32V85.3901H185.86C189.64 85.3901 192.47 86.1501 194.34 87.6601C196.22 89.1701 197.15 91.3701 197.15 94.2501C197.15 96.2901 196.69 98.0301 195.76 99.4601C194.84 100.89 193.46 101.95 191.64 102.65L198.11 114.62H192.02H192.03ZM180.86 98.6201H185.9C187.75 98.6201 189.11 98.3001 189.99 97.6501C190.87 97.0101 191.31 95.9101 191.31 94.3701C191.31 92.8301 190.88 91.8401 190.01 91.2201C189.14 90.6001 187.76 90.3001 185.85 90.3001H180.85V98.6201H180.86Z" fill="#222C3E"/>
<path d="M220.64 105.34H205.39C205.61 107.02 206.24 108.31 207.26 109.2C208.28 110.1 209.65 110.54 211.35 110.54C212.61 110.54 213.97 110.31 215.45 109.85C216.92 109.39 218.28 108.75 219.54 107.94H219.71V112.43C218.59 113.3 217.31 113.96 215.87 114.42C214.43 114.88 212.91 115.11 211.31 115.11C209.01 115.11 207.01 114.65 205.3 113.72C203.59 112.8 202.28 111.47 201.35 109.73C200.43 107.99 199.96 105.96 199.96 103.64C199.96 101.32 200.4 99.3699 201.28 97.6299C202.16 95.8899 203.4 94.5499 205 93.5999C206.6 92.6499 208.44 92.1699 210.54 92.1699C212.64 92.1699 214.37 92.6299 215.89 93.5599C217.42 94.4799 218.58 95.8099 219.4 97.5499C220.21 99.2899 220.62 101.32 220.62 103.64V105.32L220.64 105.34ZM207.26 97.9499C206.38 98.8199 205.78 100.02 205.47 101.56H214.92C214.7 99.9599 214.22 98.7499 213.49 97.9099C212.76 97.0699 211.78 96.6499 210.55 96.6499C209.23 96.6499 208.13 97.0799 207.25 97.9499H207.26Z" fill="#222C3E"/>
<path d="M237.02 114.62L236.47 111.97C234.48 114.07 232.09 115.12 229.29 115.12C227.08 115.12 225.28 114.55 223.89 113.4C222.5 112.25 221.81 110.74 221.81 108.86C221.81 106.42 222.71 104.53 224.52 103.17C226.33 101.81 228.94 101.13 232.35 101.13C233.58 101.13 234.81 101.19 236.05 101.3V100.5C236.05 99.2702 235.7 98.3502 235 97.7502C234.3 97.1502 233.19 96.8502 231.68 96.8502C230.17 96.8502 228.82 97.1002 227.54 97.5802C226.27 98.0702 224.89 98.8602 223.4 99.9502V94.9902C224.69 94.0102 226.03 93.3002 227.43 92.8502C228.83 92.4002 230.37 92.1802 232.05 92.1802C235.16 92.1802 237.53 92.8502 239.17 94.1802C240.81 95.5102 241.63 97.4502 241.63 100V109.74L242.55 114.61H237.01L237.02 114.62ZM230.13 110.88C231.19 110.88 232.2 110.66 233.15 110.23C234.1 109.8 235.07 109.1 236.05 108.15V105.17H232.02C230.4 105.17 229.21 105.41 228.47 105.88C227.73 106.36 227.36 107.21 227.36 108.44C227.36 110.06 228.28 110.88 230.13 110.88Z" fill="#222C3E"/>
<path d="M244.49 82.9497H250.03V114.62H244.49V82.9497Z" fill="#222C3E"/>
<path d="M269.06 90.2601V97.5701H281.66V102.15H269.06V109.75H282.58V114.62H263.51V85.3901H282.58V90.2601H269.06Z" fill="#222C3E"/>
<path d="M289.05 114.52C287.65 114.11 286.33 113.53 285.1 112.78V107.53C286.44 108.54 287.72 109.28 288.92 109.76C290.12 110.24 291.43 110.47 292.83 110.47C294.23 110.47 295.31 110.29 296 109.92C296.69 109.56 297.03 109 297.03 108.24C297.03 107.48 296.7 106.97 296.04 106.62C295.38 106.27 294.34 105.93 292.91 105.59C291.34 105.2 290.07 104.8 289.09 104.39C288.11 103.98 287.26 103.32 286.55 102.39C285.84 101.47 285.48 100.22 285.48 98.6499C285.48 96.6899 286.28 95.1199 287.9 93.9499C289.51 92.7699 291.67 92.1899 294.39 92.1899C295.71 92.1899 296.92 92.3399 298.04 92.6299C299.16 92.9199 300.31 93.4099 301.48 94.0799V99.1999C300.28 98.3599 299.16 97.7599 298.12 97.3899C297.08 97.0299 295.98 96.8399 294.8 96.8399C293.51 96.8399 292.52 96.9999 291.82 97.3199C291.12 97.6399 290.77 98.1099 290.77 98.7299C290.77 99.3499 291.07 99.7999 291.67 100.1C292.27 100.39 293.23 100.69 294.55 101C296.12 101.34 297.43 101.72 298.48 102.16C299.53 102.59 300.43 103.29 301.19 104.26C301.95 105.23 302.32 106.56 302.32 108.27C302.32 109.59 301.94 110.77 301.19 111.82C300.44 112.87 299.37 113.68 298 114.26C296.63 114.83 295.07 115.12 293.34 115.12C291.88 115.12 290.46 114.92 289.06 114.51L289.05 114.52Z" fill="#222C3E"/>
<path d="M311.23 92.7001H316.27V96.8201H311.23V107.4C311.23 109.53 312.04 110.59 313.67 110.59C314.43 110.59 315.31 110.32 316.32 109.79V114.37C315.62 114.62 314.97 114.81 314.37 114.94C313.77 115.07 313.09 115.13 312.33 115.13C307.91 115.13 305.69 112.55 305.69 107.4V96.8201H302.5V92.7001H305.69V86.8201L311.23 84.8901V92.7001Z" fill="#222C3E"/>
<path d="M332.44 114.62L331.89 111.97C329.9 114.07 327.51 115.12 324.71 115.12C322.5 115.12 320.7 114.55 319.31 113.4C317.92 112.25 317.23 110.74 317.23 108.86C317.23 106.42 318.13 104.53 319.94 103.17C321.75 101.81 324.36 101.13 327.77 101.13C329 101.13 330.23 101.19 331.47 101.3V100.5C331.47 99.2702 331.12 98.3502 330.42 97.7502C329.72 97.1502 328.61 96.8502 327.1 96.8502C325.59 96.8502 324.24 97.1002 322.96 97.5802C321.69 98.0702 320.31 98.8602 318.82 99.9502V94.9902C320.11 94.0102 321.45 93.3002 322.85 92.8502C324.25 92.4002 325.79 92.1802 327.47 92.1802C330.58 92.1802 332.95 92.8502 334.59 94.1802C336.23 95.5102 337.05 97.4502 337.05 100V109.74L337.97 114.61H332.43L332.44 114.62ZM325.55 110.88C326.61 110.88 327.62 110.66 328.57 110.23C329.52 109.8 330.49 109.1 331.47 108.15V105.17H327.44C325.82 105.17 324.63 105.41 323.89 105.88C323.15 106.36 322.78 107.21 322.78 108.44C322.78 110.06 323.7 110.88 325.55 110.88Z" fill="#222C3E"/>
<path d="M346.68 92.7001H351.72V96.8201H346.68V107.4C346.68 109.53 347.49 110.59 349.12 110.59C349.88 110.59 350.76 110.32 351.77 109.79V114.37C351.07 114.62 350.42 114.81 349.82 114.94C349.22 115.07 348.54 115.13 347.78 115.13C343.36 115.13 341.14 112.55 341.14 107.4V96.8201H337.95V92.7001H341.14V86.8201L346.68 84.8901V92.7001Z" fill="#222C3E"/>
<path d="M373.85 105.34H358.6C358.82 107.02 359.45 108.31 360.47 109.2C361.49 110.1 362.86 110.54 364.56 110.54C365.82 110.54 367.18 110.31 368.66 109.85C370.13 109.39 371.49 108.75 372.75 107.94H372.92V112.43C371.8 113.3 370.52 113.96 369.08 114.42C367.64 114.88 366.12 115.11 364.52 115.11C362.22 115.11 360.22 114.65 358.51 113.72C356.8 112.8 355.49 111.47 354.56 109.73C353.64 107.99 353.17 105.96 353.17 103.64C353.17 101.32 353.61 99.3699 354.49 97.6299C355.37 95.8899 356.61 94.5499 358.21 93.5999C359.81 92.6499 361.65 92.1699 363.75 92.1699C365.85 92.1699 367.58 92.6299 369.1 93.5599C370.63 94.4799 371.79 95.8099 372.61 97.5499C373.42 99.2899 373.83 101.32 373.83 103.64V105.32L373.85 105.34ZM360.47 97.9499C359.59 98.8199 358.99 100.02 358.68 101.56H368.13C367.91 99.9599 367.43 98.7499 366.7 97.9099C365.97 97.0699 364.99 96.6499 363.76 96.6499C362.44 96.6499 361.34 97.0799 360.46 97.9499H360.47Z" fill="#222C3E"/>
<path d="M181.43 153.28C179.12 152.05 177.36 150.29 176.14 148.01C174.92 145.73 174.31 143.06 174.31 140.01C174.31 136.96 174.93 134.29 176.16 132.01C177.39 129.73 179.18 127.97 181.54 126.74C183.9 125.51 186.71 124.89 189.98 124.89C191.35 124.89 192.7 125.02 194.03 125.29C195.36 125.56 196.56 125.96 197.62 126.49V131.61H197.45C196.39 130.99 195.23 130.53 193.99 130.22C192.74 129.91 191.56 129.76 190.44 129.76C187.25 129.76 184.73 130.64 182.9 132.41C181.07 134.17 180.15 136.71 180.15 140.01C180.15 143.31 181.05 145.81 182.84 147.57C184.63 149.33 187.08 150.22 190.19 150.22C191.39 150.22 192.62 150.03 193.87 149.65C195.12 149.27 196.31 148.73 197.46 148.03H197.63V153.2C195.39 154.49 192.76 155.13 189.73 155.13C186.51 155.13 183.75 154.51 181.44 153.28H181.43Z" fill="#222C3E"/>
<path d="M205.98 153.72C204.3 152.78 203 151.45 202.09 149.71C201.18 147.97 200.73 145.96 200.73 143.66C200.73 141.36 201.18 139.35 202.09 137.61C203 135.87 204.3 134.54 205.98 133.6C207.66 132.66 209.61 132.19 211.82 132.19C214.03 132.19 215.98 132.66 217.66 133.6C219.34 134.54 220.64 135.88 221.55 137.61C222.46 139.35 222.91 141.36 222.91 143.66C222.91 145.96 222.45 147.97 221.55 149.71C220.64 151.45 219.34 152.78 217.66 153.72C215.98 154.66 214.03 155.13 211.82 155.13C209.61 155.13 207.66 154.66 205.98 153.72ZM215.68 148.76C216.6 147.57 217.07 145.87 217.07 143.66C217.07 141.45 216.61 139.71 215.68 138.54C214.76 137.36 213.47 136.78 211.82 136.78C210.17 136.78 208.88 137.37 207.96 138.54C207.04 139.72 206.57 141.42 206.57 143.66C206.57 145.9 207.03 147.57 207.96 148.76C208.88 149.95 210.17 150.55 211.82 150.55C213.47 150.55 214.76 149.96 215.68 148.76Z" fill="#222C3E"/>
<path d="M243.5 134.15C244.86 135.45 245.54 137.17 245.54 139.29V154.62H240V142.44C240 140.54 239.71 139.17 239.14 138.34C238.57 137.51 237.62 137.1 236.31 137.1C234.85 137.1 233.31 137.91 231.69 139.54V154.62H226.15V137.57L225.23 132.7H230.31L231.11 135.51C232.31 134.33 233.48 133.49 234.6 132.97C235.72 132.45 236.91 132.19 238.17 132.19C240.38 132.19 242.17 132.84 243.52 134.14L243.5 134.15Z" fill="#222C3E"/>
<path d="M252.26 154.52C250.86 154.11 249.54 153.53 248.31 152.78V147.53C249.65 148.54 250.93 149.28 252.13 149.76C253.33 150.24 254.64 150.47 256.04 150.47C257.44 150.47 258.52 150.29 259.21 149.92C259.9 149.56 260.24 149 260.24 148.24C260.24 147.48 259.91 146.97 259.25 146.62C258.59 146.27 257.55 145.93 256.12 145.59C254.55 145.2 253.28 144.8 252.3 144.39C251.32 143.98 250.47 143.32 249.76 142.39C249.05 141.47 248.69 140.22 248.69 138.65C248.69 136.69 249.49 135.12 251.11 133.95C252.72 132.77 254.88 132.19 257.6 132.19C258.92 132.19 260.13 132.34 261.25 132.63C262.37 132.92 263.52 133.41 264.69 134.08V139.2C263.49 138.36 262.37 137.76 261.33 137.39C260.29 137.03 259.19 136.84 258.01 136.84C256.72 136.84 255.73 137 255.03 137.32C254.33 137.64 253.98 138.11 253.98 138.73C253.98 139.35 254.28 139.8 254.88 140.1C255.48 140.39 256.44 140.69 257.76 141C259.33 141.34 260.64 141.72 261.69 142.16C262.74 142.59 263.64 143.29 264.4 144.26C265.16 145.23 265.53 146.56 265.53 148.27C265.53 149.59 265.15 150.77 264.4 151.82C263.65 152.87 262.58 153.68 261.21 154.26C259.84 154.83 258.28 155.12 256.55 155.12C255.09 155.12 253.67 154.92 252.27 154.51L252.26 154.52Z" fill="#222C3E"/>
<path d="M283.38 154.62L282.58 151.76C281.15 153.02 279.9 153.9 278.82 154.38C277.74 154.87 276.52 155.12 275.15 155.12C273.78 155.12 272.64 154.81 271.56 154.2C270.48 153.58 269.64 152.74 269.04 151.66C268.44 150.58 268.14 149.37 268.14 148.03V132.7H273.68V144.88C273.68 146.64 273.96 147.97 274.52 148.87C275.08 149.77 275.89 150.21 276.96 150.21C277.86 150.21 278.7 150.01 279.48 149.62C280.26 149.23 281.1 148.6 282 147.73V132.69H287.54V149.74L288.46 154.61H283.38V154.62Z" fill="#222C3E"/>
<path d="M291.7 122.95H297.24V154.62H291.7V122.95Z" fill="#222C3E"/>
<path d="M307.36 132.7H312.4V136.82H307.36V147.4C307.36 149.53 308.17 150.59 309.8 150.59C310.56 150.59 311.44 150.32 312.45 149.79V154.37C311.75 154.62 311.1 154.81 310.5 154.94C309.9 155.07 309.22 155.13 308.46 155.13C304.04 155.13 301.82 152.55 301.82 147.4V136.82H298.63V132.7H301.82V126.82L307.36 124.89V132.7Z" fill="#222C3E"/>
<path d="M328.57 154.62L328.02 151.97C326.03 154.07 323.64 155.12 320.84 155.12C318.63 155.12 316.83 154.55 315.44 153.4C314.05 152.25 313.36 150.74 313.36 148.86C313.36 146.42 314.26 144.53 316.07 143.17C317.88 141.81 320.49 141.13 323.9 141.13C325.13 141.13 326.36 141.19 327.6 141.3V140.5C327.6 139.27 327.25 138.35 326.55 137.75C325.85 137.15 324.74 136.85 323.23 136.85C321.72 136.85 320.37 137.1 319.09 137.58C317.82 138.07 316.44 138.86 314.95 139.95V134.99C316.24 134.01 317.58 133.3 318.98 132.85C320.38 132.4 321.92 132.18 323.6 132.18C326.71 132.18 329.08 132.85 330.72 134.18C332.36 135.51 333.18 137.45 333.18 140V149.74L334.1 154.61H328.56L328.57 154.62ZM321.68 150.88C322.74 150.88 323.75 150.66 324.7 150.23C325.65 149.8 326.62 149.1 327.6 148.15V145.17H323.57C321.95 145.17 320.76 145.41 320.02 145.88C319.28 146.36 318.91 147.21 318.91 148.44C318.91 150.06 319.83 150.88 321.68 150.88Z" fill="#222C3E"/>
<path d="M354.05 134.15C355.41 135.45 356.09 137.17 356.09 139.29V154.62H350.55V142.44C350.55 140.54 350.26 139.17 349.69 138.34C349.12 137.51 348.17 137.1 346.86 137.1C345.4 137.1 343.86 137.91 342.24 139.54V154.62H336.7V137.57L335.78 132.7H340.86L341.66 135.51C342.86 134.33 344.03 133.49 345.15 132.97C346.27 132.45 347.46 132.19 348.72 132.19C350.93 132.19 352.72 132.84 354.07 134.14L354.05 134.15Z" fill="#222C3E"/>
<path d="M366.84 132.7H371.88V136.82H366.84V147.4C366.84 149.53 367.65 150.59 369.28 150.59C370.04 150.59 370.92 150.32 371.93 149.79V154.37C371.23 154.62 370.58 154.81 369.98 154.94C369.38 155.07 368.7 155.13 367.94 155.13C363.52 155.13 361.3 152.55 361.3 147.4V136.82H358.11V132.7H361.3V126.82L366.84 124.89V132.7Z" fill="#222C3E"/>
<path d="M173.34 37.04L240.1 5.89L305.94 37.04L239.64 0L173.34 37.04Z" fill="#00BF63"/>
<path d="M177.51 168.47H174.34V167.14H182V168.47H178.83V177.64H177.5V168.47H177.51Z" fill="#222C3E"/>
<path d="M189.37 170.28C189.75 170.74 189.94 171.37 189.94 172.19V177.65H188.61V172.37C188.61 171.87 188.5 171.48 188.29 171.2C188.08 170.92 187.76 170.79 187.33 170.79C186.84 170.79 186.42 170.87 186.09 171.03C185.75 171.19 185.38 171.45 184.97 171.81V177.65H183.64V166.28H184.97V170.76C185.41 170.36 185.83 170.06 186.23 169.88C186.63 169.69 187.11 169.6 187.69 169.6C188.43 169.6 189 169.83 189.38 170.29L189.37 170.28Z" fill="#222C3E"/>
<path d="M198.62 174.14H193.04C193.12 174.91 193.38 175.53 193.82 175.99C194.26 176.45 194.85 176.68 195.61 176.68C196.06 176.68 196.5 176.59 196.93 176.4C197.36 176.21 197.79 175.94 198.23 175.58H198.29V176.91C197.85 177.23 197.41 177.47 196.98 177.61C196.55 177.76 196.08 177.83 195.59 177.83C194.79 177.83 194.09 177.65 193.49 177.3C192.9 176.95 192.44 176.46 192.13 175.83C191.81 175.2 191.65 174.48 191.65 173.67C191.65 172.86 191.79 172.2 192.08 171.58C192.37 170.96 192.78 170.48 193.31 170.12C193.84 169.77 194.47 169.59 195.18 169.59C195.89 169.59 196.52 169.77 197.04 170.13C197.56 170.49 197.95 170.98 198.22 171.6C198.49 172.22 198.62 172.93 198.62 173.71V174.15V174.14ZM193.7 171.37C193.33 171.82 193.11 172.41 193.04 173.12H197.25C197.18 172.39 196.98 171.8 196.64 171.36C196.3 170.92 195.82 170.7 195.2 170.7C194.58 170.7 194.08 170.93 193.71 171.38L193.7 171.37Z" fill="#222C3E"/>
<path d="M213.74 170.28C214.12 170.74 214.31 171.37 214.31 172.19V177.65H212.98V172.37C212.98 171.87 212.87 171.48 212.66 171.2C212.45 170.92 212.13 170.79 211.69 170.79C211.25 170.79 210.88 170.87 210.57 171.03C210.27 171.19 209.92 171.45 209.53 171.81C209.53 171.89 209.55 172.02 209.55 172.19V177.65H208.22V172.37C208.22 171.87 208.11 171.48 207.9 171.2C207.69 170.92 207.37 170.79 206.94 170.79C206.51 170.79 206.13 170.87 205.82 171.02C205.52 171.18 205.18 171.44 204.79 171.8V177.65H203.46V171.53L203.13 169.78H204.46L204.67 170.87C205.12 170.42 205.53 170.09 205.9 169.9C206.27 169.7 206.73 169.61 207.28 169.61C207.8 169.61 208.24 169.73 208.58 169.96C208.93 170.19 209.18 170.52 209.34 170.96C209.82 170.48 210.25 170.13 210.62 169.93C210.99 169.72 211.46 169.62 212.02 169.62C212.76 169.62 213.33 169.85 213.71 170.31L213.74 170.28Z" fill="#222C3E"/>
<path d="M217.11 176.7C216.47 175.95 216.14 174.95 216.14 173.71C216.14 172.47 216.46 171.46 217.11 170.72C217.75 169.97 218.65 169.6 219.79 169.6C220.93 169.6 221.83 169.98 222.47 170.72C223.11 171.47 223.44 172.47 223.44 173.71C223.44 174.95 223.12 175.95 222.47 176.7C221.82 177.45 220.93 177.82 219.79 177.82C218.65 177.82 217.75 177.45 217.11 176.7ZM221.45 175.86C221.82 175.32 222.01 174.6 222.01 173.7C222.01 172.8 221.82 172.09 221.45 171.54C221.08 170.99 220.53 170.73 219.79 170.73C219.05 170.73 218.51 171 218.14 171.54C217.77 172.08 217.59 172.8 217.59 173.7C217.59 174.6 217.77 175.31 218.14 175.86C218.51 176.41 219.06 176.67 219.79 176.67C220.52 176.67 221.08 176.4 221.45 175.86Z" fill="#222C3E"/>
<path d="M230.66 177.64L230.46 176.6C230.1 177 229.69 177.3 229.24 177.51C228.79 177.71 228.28 177.81 227.72 177.81C226.74 177.81 226 177.43 225.47 176.68C224.95 175.93 224.69 174.96 224.69 173.78C224.69 172.98 224.83 172.26 225.12 171.62C225.41 170.99 225.82 170.49 226.36 170.13C226.9 169.77 227.54 169.59 228.28 169.59C228.64 169.59 228.98 169.63 229.31 169.72C229.63 169.81 229.97 169.93 230.34 170.09V166.28H231.67V175.9L232 177.65H230.67L230.66 177.64ZM229.22 176.29C229.6 176.09 229.97 175.8 230.33 175.42V171.09C229.69 170.87 229.05 170.76 228.41 170.76C227.68 170.76 227.11 171.04 226.71 171.6C226.31 172.16 226.11 172.87 226.11 173.75C226.11 174.63 226.25 175.27 226.54 175.79C226.83 176.32 227.29 176.58 227.92 176.58C228.4 176.58 228.83 176.48 229.21 176.29H229.22Z" fill="#222C3E"/>
<path d="M240.24 174.14H234.66C234.74 174.91 235 175.53 235.44 175.99C235.88 176.45 236.47 176.68 237.23 176.68C237.68 176.68 238.12 176.59 238.55 176.4C238.98 176.21 239.41 175.94 239.85 175.58H239.91V176.91C239.47 177.23 239.03 177.47 238.6 177.61C238.17 177.76 237.7 177.83 237.21 177.83C236.41 177.83 235.71 177.65 235.11 177.3C234.52 176.95 234.06 176.46 233.75 175.83C233.43 175.2 233.27 174.48 233.27 173.67C233.27 172.86 233.41 172.2 233.7 171.58C233.99 170.96 234.4 170.48 234.93 170.12C235.46 169.77 236.09 169.59 236.8 169.59C237.51 169.59 238.14 169.77 238.66 170.13C239.18 170.49 239.57 170.98 239.84 171.6C240.11 172.22 240.24 172.93 240.24 173.71V174.15V174.14ZM235.32 171.37C234.95 171.82 234.73 172.41 234.66 173.12H238.87C238.8 172.39 238.6 171.8 238.26 171.36C237.92 170.92 237.44 170.7 236.82 170.7C236.2 170.7 235.7 170.93 235.33 171.38L235.32 171.37Z" fill="#222C3E"/>
<path d="M245.7 169.59V171.05H245.47C245 171.05 244.57 171.13 244.2 171.31C243.83 171.49 243.51 171.73 243.26 172.05V177.64H241.93V171.52L241.6 169.77H242.93L243.2 171.17C243.61 170.57 243.96 170.15 244.25 169.93C244.54 169.7 244.87 169.59 245.24 169.59H245.71H245.7Z" fill="#222C3E"/>
<path d="M252.95 170.28C253.33 170.74 253.52 171.37 253.52 172.19V177.65H252.19V172.37C252.19 171.87 252.08 171.48 251.87 171.2C251.66 170.92 251.34 170.79 250.91 170.79C250.42 170.79 250 170.87 249.67 171.03C249.33 171.19 248.96 171.45 248.55 171.81V177.65H247.22V171.53L246.89 169.78H248.22L248.43 170.88C248.9 170.43 249.34 170.1 249.75 169.9C250.16 169.7 250.66 169.6 251.27 169.6C252.01 169.6 252.58 169.83 252.96 170.29L252.95 170.28Z" fill="#222C3E"/>
<path d="M269.89 169.77L267.42 177.64H265.7L263.85 171.59L262.03 177.64H260.31L257.84 169.77H259.2L261.25 176.36L263.21 169.77H264.57L266.56 176.36L268.61 169.77H269.91H269.89Z" fill="#222C3E"/>
<path d="M275.72 177.64L275.51 176.51C275.12 176.94 274.69 177.27 274.24 177.49C273.78 177.71 273.27 177.82 272.69 177.82C271.98 177.82 271.4 177.62 270.96 177.21C270.52 176.8 270.3 176.26 270.3 175.59C270.3 174.71 270.65 174.07 271.36 173.66C272.06 173.25 272.97 173.04 274.07 173.04C274.47 173.04 274.91 173.07 275.4 173.12V172.58C275.4 172.04 275.25 171.6 274.96 171.28C274.66 170.95 274.28 170.79 273.81 170.79C273.25 170.79 272.74 170.87 272.28 171.02C271.82 171.17 271.35 171.41 270.87 171.73V170.45C271.34 170.14 271.83 169.92 272.32 169.79C272.81 169.66 273.38 169.6 274.01 169.6C274.81 169.6 275.47 169.86 275.98 170.37C276.49 170.88 276.74 171.56 276.74 172.41V175.91L277.07 177.66H275.74L275.72 177.64ZM274.26 176.4C274.64 176.2 275.02 175.91 275.39 175.52V174.04H274C272.48 174.04 271.72 174.53 271.72 175.5C271.72 175.86 271.84 176.15 272.07 176.37C272.3 176.59 272.6 176.69 272.96 176.69C273.44 176.69 273.87 176.59 274.26 176.39V176.4Z" fill="#222C3E"/>
<path d="M285.07 169.77L280.56 181.14H279.2L280.56 177.73L277.44 169.77H278.8L281.26 176.22L283.66 169.77H285.08H285.07Z" fill="#222C3E"/>
<path d="M290.86 169.77H293.03V170.92H290.86V175.43C290.86 175.8 290.94 176.1 291.11 176.33C291.28 176.56 291.52 176.67 291.84 176.67C292.06 176.67 292.26 176.65 292.44 176.6C292.62 176.55 292.81 176.48 293.04 176.38V177.56C292.81 177.67 292.59 177.74 292.38 177.78C292.17 177.82 291.91 177.83 291.61 177.83C290.97 177.83 290.46 177.62 290.09 177.21C289.72 176.8 289.54 176.25 289.54 175.57V170.93H288.03V169.78H289.54V167.67L290.87 166.98V169.78L290.86 169.77Z" fill="#222C3E"/>
<path d="M294.8 176.7C294.16 175.95 293.83 174.95 293.83 173.71C293.83 172.47 294.15 171.46 294.8 170.72C295.44 169.97 296.34 169.6 297.48 169.6C298.62 169.6 299.52 169.98 300.16 170.72C300.8 171.47 301.13 172.47 301.13 173.71C301.13 174.95 300.81 175.95 300.16 176.7C299.51 177.45 298.62 177.82 297.48 177.82C296.34 177.82 295.44 177.45 294.8 176.7ZM299.14 175.86C299.51 175.32 299.7 174.6 299.7 173.7C299.7 172.8 299.51 172.09 299.14 171.54C298.77 170.99 298.22 170.73 297.48 170.73C296.74 170.73 296.2 171 295.83 171.54C295.46 172.08 295.28 172.8 295.28 173.7C295.28 174.6 295.46 175.31 295.83 175.86C296.2 176.41 296.75 176.67 297.48 176.67C298.21 176.67 298.77 176.4 299.14 175.86Z" fill="#222C3E"/>
<path d="M309.94 169.59V171.05H309.71C309.24 171.05 308.81 171.13 308.44 171.31C308.07 171.49 307.75 171.73 307.5 172.05V177.64H306.17V171.52L305.84 169.77H307.17L307.44 171.17C307.85 170.57 308.2 170.15 308.49 169.93C308.78 169.7 309.11 169.59 309.48 169.59H309.95H309.94Z" fill="#222C3E"/>
<path d="M317.51 174.14H311.93C312.01 174.91 312.27 175.53 312.71 175.99C313.15 176.45 313.74 176.68 314.5 176.68C314.95 176.68 315.39 176.59 315.82 176.4C316.25 176.21 316.68 175.94 317.12 175.58H317.18V176.91C316.74 177.23 316.3 177.47 315.87 177.61C315.44 177.76 314.97 177.83 314.48 177.83C313.68 177.83 312.98 177.65 312.38 177.3C311.79 176.95 311.33 176.46 311.02 175.83C310.7 175.2 310.54 174.48 310.54 173.67C310.54 172.86 310.68 172.2 310.97 171.58C311.26 170.96 311.67 170.48 312.2 170.12C312.73 169.77 313.36 169.59 314.07 169.59C314.78 169.59 315.41 169.77 315.93 170.13C316.45 170.49 316.84 170.98 317.11 171.6C317.38 172.22 317.51 172.93 317.51 173.71V174.15V174.14ZM312.59 171.37C312.22 171.82 312 172.41 311.93 173.12H316.14C316.07 172.39 315.87 171.8 315.53 171.36C315.19 170.92 314.71 170.7 314.09 170.7C313.47 170.7 312.97 170.93 312.6 171.38L312.59 171.37Z" fill="#222C3E"/>
<path d="M323.92 177.64L323.71 176.51C323.32 176.94 322.89 177.27 322.44 177.49C321.98 177.71 321.47 177.82 320.89 177.82C320.18 177.82 319.6 177.62 319.16 177.21C318.72 176.8 318.5 176.26 318.5 175.59C318.5 174.71 318.85 174.07 319.56 173.66C320.26 173.25 321.17 173.04 322.27 173.04C322.67 173.04 323.11 173.07 323.6 173.12V172.58C323.6 172.04 323.45 171.6 323.16 171.28C322.86 170.95 322.48 170.79 322.01 170.79C321.45 170.79 320.94 170.87 320.48 171.02C320.02 171.17 319.55 171.41 319.07 171.73V170.45C319.54 170.14 320.03 169.92 320.52 169.79C321.01 169.66 321.58 169.6 322.21 169.6C323.01 169.6 323.67 169.86 324.18 170.37C324.69 170.88 324.94 171.56 324.94 172.41V175.91L325.27 177.66H323.94L323.92 177.64ZM322.46 176.4C322.84 176.2 323.22 175.91 323.59 175.52V174.04H322.2C320.68 174.04 319.92 174.53 319.92 175.5C319.92 175.86 320.04 176.15 320.27 176.37C320.5 176.59 320.8 176.69 321.16 176.69C321.64 176.69 322.07 176.59 322.46 176.39V176.4Z" fill="#222C3E"/>
<path d="M326.68 166.27H328.01V177.64H326.68V166.27Z" fill="#222C3E"/>
<path d="M339.65 174.14H334.07C334.15 174.91 334.41 175.53 334.85 175.99C335.29 176.45 335.88 176.68 336.64 176.68C337.09 176.68 337.53 176.59 337.96 176.4C338.39 176.21 338.82 175.94 339.26 175.58H339.32V176.91C338.88 177.23 338.44 177.47 338.01 177.61C337.58 177.76 337.11 177.83 336.62 177.83C335.82 177.83 335.12 177.65 334.52 177.3C333.93 176.95 333.47 176.46 333.16 175.83C332.84 175.2 332.68 174.48 332.68 173.67C332.68 172.86 332.82 172.2 333.11 171.58C333.4 170.96 333.81 170.48 334.34 170.12C334.87 169.77 335.5 169.59 336.21 169.59C336.92 169.59 337.55 169.77 338.07 170.13C338.59 170.49 338.98 170.98 339.25 171.6C339.52 172.22 339.65 172.93 339.65 173.71V174.15V174.14ZM334.73 171.37C334.36 171.82 334.14 172.41 334.07 173.12H338.28C338.21 172.39 338.01 171.8 337.67 171.36C337.33 170.92 336.85 170.7 336.23 170.7C335.61 170.7 335.11 170.93 334.74 171.38L334.73 171.37Z" fill="#222C3E"/>
<path d="M341.84 177.6C341.37 177.45 340.93 177.25 340.52 176.98V175.59C341.44 176.29 342.34 176.65 343.23 176.65C343.75 176.65 344.18 176.54 344.5 176.33C344.82 176.11 344.98 175.82 344.98 175.46C344.98 175.21 344.9 175 344.75 174.84C344.6 174.68 344.4 174.55 344.17 174.46C343.94 174.37 343.61 174.26 343.17 174.13C342.64 173.98 342.2 173.83 341.85 173.68C341.5 173.53 341.21 173.32 340.97 173.03C340.73 172.74 340.61 172.37 340.61 171.91C340.61 171.21 340.88 170.64 341.41 170.22C341.94 169.8 342.64 169.59 343.51 169.59C344.38 169.59 345.16 169.82 345.86 170.27V171.61C345.47 171.31 345.09 171.09 344.72 170.96C344.35 170.83 343.97 170.76 343.57 170.76C343.07 170.76 342.67 170.85 342.38 171.03C342.09 171.21 341.94 171.46 341.94 171.78C341.94 172.01 342.02 172.2 342.17 172.35C342.33 172.5 342.52 172.62 342.75 172.71C342.98 172.8 343.31 172.91 343.75 173.04C344.29 173.2 344.73 173.35 345.08 173.5C345.42 173.65 345.71 173.87 345.96 174.16C346.2 174.46 346.32 174.84 346.32 175.31C346.32 175.78 346.19 176.22 345.93 176.6C345.67 176.98 345.31 177.27 344.84 177.48C344.37 177.69 343.85 177.8 343.27 177.8C342.79 177.8 342.31 177.73 341.85 177.58L341.84 177.6Z" fill="#222C3E"/>
<path d="M349.37 169.77H351.54V170.92H349.37V175.43C349.37 175.8 349.45 176.1 349.62 176.33C349.79 176.56 350.03 176.67 350.35 176.67C350.57 176.67 350.77 176.65 350.95 176.6C351.13 176.55 351.32 176.48 351.55 176.38V177.56C351.32 177.67 351.1 177.74 350.89 177.78C350.68 177.82 350.42 177.83 350.12 177.83C349.48 177.83 348.97 177.62 348.6 177.21C348.23 176.8 348.05 176.25 348.05 175.57V170.93H346.54V169.78H348.05V167.67L349.38 166.98V169.78L349.37 169.77Z" fill="#222C3E"/>
<path d="M357.58 177.64L357.37 176.51C356.98 176.94 356.55 177.27 356.1 177.49C355.64 177.71 355.13 177.82 354.55 177.82C353.84 177.82 353.26 177.62 352.82 177.21C352.38 176.8 352.16 176.26 352.16 175.59C352.16 174.71 352.51 174.07 353.22 173.66C353.92 173.25 354.83 173.04 355.93 173.04C356.33 173.04 356.77 173.07 357.26 173.12V172.58C357.26 172.04 357.11 171.6 356.82 171.28C356.52 170.95 356.14 170.79 355.67 170.79C355.11 170.79 354.6 170.87 354.14 171.02C353.68 171.17 353.21 171.41 352.73 171.73V170.45C353.2 170.14 353.69 169.92 354.18 169.79C354.67 169.66 355.24 169.6 355.87 169.6C356.67 169.6 357.33 169.86 357.84 170.37C358.35 170.88 358.6 171.56 358.6 172.41V175.91L358.93 177.66H357.6L357.58 177.64ZM356.12 176.4C356.5 176.2 356.88 175.91 357.25 175.52V174.04H355.86C354.34 174.04 353.58 174.53 353.58 175.5C353.58 175.86 353.7 176.15 353.93 176.37C354.16 176.59 354.46 176.69 354.82 176.69C355.3 176.69 355.73 176.59 356.12 176.39V176.4Z" fill="#222C3E"/>
<path d="M362.1 169.77H364.27V170.92H362.1V175.43C362.1 175.8 362.18 176.1 362.35 176.33C362.52 176.56 362.76 176.67 363.08 176.67C363.3 176.67 363.5 176.65 363.68 176.6C363.86 176.55 364.05 176.48 364.28 176.38V177.56C364.05 177.67 363.83 177.74 363.62 177.78C363.41 177.82 363.15 177.83 362.85 177.83C362.21 177.83 361.7 177.62 361.33 177.21C360.96 176.8 360.78 176.25 360.78 175.57V170.93H359.27V169.78H360.78V167.67L362.11 166.98V169.78L362.1 169.77Z" fill="#222C3E"/>
<path d="M371.92 174.14H366.34C366.42 174.91 366.68 175.53 367.12 175.99C367.56 176.45 368.15 176.68 368.91 176.68C369.36 176.68 369.8 176.59 370.23 176.4C370.66 176.21 371.09 175.94 371.53 175.58H371.59V176.91C371.15 177.23 370.71 177.47 370.28 177.61C369.85 177.76 369.38 177.83 368.89 177.83C368.09 177.83 367.39 177.65 366.79 177.3C366.2 176.95 365.74 176.46 365.43 175.83C365.11 175.2 364.95 174.48 364.95 173.67C364.95 172.86 365.09 172.2 365.38 171.58C365.67 170.96 366.08 170.48 366.61 170.12C367.14 169.77 367.77 169.59 368.48 169.59C369.19 169.59 369.82 169.77 370.34 170.13C370.86 170.49 371.25 170.98 371.52 171.6C371.79 172.22 371.92 172.93 371.92 173.71V174.15V174.14ZM367 171.37C366.63 171.82 366.41 172.41 366.34 173.12H370.55C370.48 172.39 370.28 171.8 369.94 171.36C369.6 170.92 369.12 170.7 368.5 170.7C367.88 170.7 367.38 170.93 367.01 171.38L367 171.37Z" fill="#222C3E"/>
<path d="M165.32 177.82H95.84L95.94 127.11L107.7 126.85L92.75 111.39V92.6199H82.84V102.31L67.55 87.6599L28.26 126.67H40.53V177.82H0V175.82H38.53V128.67H23.4L67.52 84.8599L80.84 97.6199V90.6199H94.75V110.58L112.32 128.75L97.93 129.06L97.84 175.82H165.32V177.82Z" fill="#00BF63"/>
</g>
<defs>
<clipPath id="clip0_126_2840">
<rect width="373.85" height="181.14" fill="white"/>
</clipPath>
</defs>
</svg>
